<?xml version="1.0"?>
<svg width="133" height="85" xmlns="http://www.w3.org/2000/svg">
 <defs>
  <path id="svg_1" d="m0,0z"/>
  <path id="svg_2" d="m1035.170044,632.833008c2.332886,-2.001282 3.333496,-4.334167 3.333496,-6.834351c0,-6.499878 -5.16748,-9.833435 -15.499878,-9.833435c-2.001221,0 -5.000305,0.334534 -9,1.000671c-4.166931,0.666138 -7.333252,1.00061 -9.666138,1.00061c-15.168213,0 -30.668091,-15.000977 -46.335205,-45.000122c-63.499023,-123.000977 -104.830994,-276.165955 -123.999023,-459.332985c7.500488,14.00032 17.333923,32.666496 29.834717,56.16581c3.497986,7.166 7.832153,10.666809 13.164124,10.666809c6.168152,0 9.167236,-3.99971 9.167236,-12.166321c0,-3.99968 -1.00061,-8.501099 -3.333557,-13.665878c-14.33197,-33.834419 -27.499023,-82.49971 -39.497986,-146.002007c-3.001892,-14.0003 -9.334534,-20.9991 -19.167908,-20.9991c-11.001282,0 -27.833374,8.49829 -50.167725,25.3333c-10.831177,8.16663 -16.99939,14.6665 -18.666199,19.499601c-1.833984,4.66584 -1.833984,14.000298 0.50177,28.332298c11.664612,70.667908 26.832764,150.335999 45.498962,238.834c21.500793,101.168976 37.000732,161 46.834106,179.166992c-34.168884,-40.33139 -76.167114,-99.666382 -126,-177.666992c-48.832458,-76.833206 -91.499695,-149.998016 -128.002014,-219.331009c6.667114,-20.168499 9.833435,-35.3339 9.833435,-45.334591c0,-12.665199 -10.666809,-28.998499 -32.164795,-48.8325c-11.168518,-10.4996 -18.501831,-15.6671 -21.999695,-15.6671c-3.66803,0 -13.166992,12.9997 -28.834106,38.9991c-6.834351,11.168501 -10.335114,20.001301 -10.335114,26.501202c0,4.498589 4.835907,15.499897 14.167633,33.165401c-20.831909,77.502182 -58.666016,171.834 -113.667023,283.167923c-35.166687,-88.500641 -70.832306,-169.333954 -107,-242.166992c23.499298,-26.333893 35.166687,-44.166695 35.166687,-53.166695c0,-7.166 -8.166626,-11.831787 -24.332672,-13.665897c-34.166107,-3.999683 -62.832916,-21.500792 -86.000519,-52.832201c-2.001251,-10.0007 -6.834351,-15.168199 -14.666489,-15.168199c-11.001312,0 -28.167908,10.000699 -51.168304,29.834709c-7.166,6.16537 -10.831207,11.165699 -10.831207,15.1654c0,3.500801 2.999069,7.99939 8.832779,13.167002c21.832504,18.833397 46.666901,37.167995 74.667603,54.666302c60.5,100.666969 109.830994,206.333992 148,317.333992c-39.835388,87.332794 -89.002411,148.167084 -148,182.66806c-9.833405,5.830872 -19.000702,8.832764 -27.833389,8.832764c-12.333603,0 -25.333313,-6.332581 -39.002014,-19.000671c-12.665192,-13.665894 -25.500488,-27.499023 -38.165787,-41.499329c-7.166008,-8.166626 -14.499207,-12.333557 -21.999702,-12.333557c-5.83371,0 -8.668373,2.999023 -8.668373,8.832764c0,2.999084 0.833389,6.332581 2.834648,10.332275c43.999504,88.169006 86.000496,131.502014 126.000008,129.835999c47.50029,-1.666748 109.164993,-60.5 185.000992,-176.834015c18.666199,42.332733 27.833405,80.665741 27.833405,114.835052c0,17.498291 2.664581,26.331055 7.832153,26.331055c5.000336,0 16.333282,-6.998718 34.166107,-20.999084c5.334808,-4.166931 7.667725,-12.999695 7.333221,-26.333862c-0.666138,-16.999451 -15.667084,-66.33374 -45.331787,-148.000061c57.333679,-111.334015 100.667023,-212.834015 130.332001,-304.666c114.835022,190.831985 218.333008,339.664963 310,446.831955c11.500183,26.002319 25.500488,51.667236 42.000977,77.167725c7.166016,10.998413 15.831543,16.500488 25.99939,16.500488c15.168213,0 42.332703,-15.667053 81.000183,-46.834106l0.000977,-0.002258l0,0.000061z"/>
  <path id="svg_3" d="m391.167999,173.832001c-19.502411,-29.664597 -45.000092,-72.666298 -76.167114,-128.832001c-5.83371,-14.6665 -11.667389,-29.333 -17.166687,-43.9995c-4.501434,-10.1679 -10.499603,-15.1682 -18,-15.1682c-5.83371,0 -14.502106,2.50016 -25.999405,7.33324c-12.668091,5.16757 -19.000687,10.3351 -19.000687,15.6671c0,2.16851 2.165665,7.333241 6.332611,15.1682c21.16629,42.831604 40.166992,96.500099 56.66748,160.498001c18,67.501602 25.500519,118.834015 23.000427,154.335022c-0.669006,14.332001 -3.999695,21.497986 -9.833435,21.497986c-4.166931,0 -10.50238,-3.999695 -19.000702,-12.16629c-82.000793,-80.166809 -152.999985,-187.166 -212.834,-321.333008c-7.500488,-16.5005 -16.333298,-24.8316 -26.498299,-24.8316c-7.168831,0 -19.000698,3.99969 -35.5012,12.1663c-6.6671,2.99906 -10.0007,5.66647 -10.3323,8.331039c0,1.335121 1.83119,5.833712 5.33198,13.668699c19.0007,41.332104 37.666899,93.665409 56.165804,157.167011c19.834099,68.66658 31.167,122.331985 33.667183,160.665024c0.666153,11.667389 0.334496,17.665588 -1.000626,17.665588c-0.33165,0 -4.833069,-4.498627 -13.665901,-13.331421c-8.665527,-8.668396 -20.9991,-20.168488 -36.499001,-34.166077c-3.0019,-2.834686 -6.168198,-4.334229 -9.833408,-4.334229c-4.501431,0 -6.834351,1.834045 -6.834351,5.332001c0,2.667389 1.666779,5.502075 4.83308,8.835602c14.000298,17.832825 32.502098,40.164246 55.167999,66.832611c5.000343,5.499207 10.000702,8.333893 15.165398,8.333893c7.834984,0 14.666504,-5.666504 20.500206,-17.002197c26.50119,-7.832123 38.834702,-19.998535 37.167984,-36.16449c-3.66803,-35.835693 -21.999695,-100.500015 -55.167984,-193.833008c21.835312,41.998199 53.50119,88.832275 95.167801,140.831024c41.666489,51.834381 72.666321,82.502502 92.832001,92.001465c10.000702,4.498627 17.166718,6.834351 21.500793,6.834351c4.166962,0 11.001312,-3.500763 20.500214,-10.666809c27.000092,-9.50174 40.33432,-25.168854 39.999817,-47.001373c0,-22.665894 -5.499237,-59.332092 -16.667816,-109.834015c-8.665527,-41.666489 -16.832184,-73.998596 -24.332703,-97.166199c9.50174,12.166306 21.500793,27.666199 36.167297,47.001404c2.500183,3.166306 5.167572,4.833084 7.832153,4.833084c4.833069,0 7.333252,-3.166336 7.333252,-9.334518c0,-1.998428 -0.331665,-3.832443 -0.997803,-5.83371l-0.000061,0.000015l0,-0.000015z"/>
  <path id="svg_4" d="m226.998993,545.83197c5.334808,-3.832458 7.834976,-8.166626 7.834976,-13.164124c0,-9.334473 -14.000305,-24.000977 -42.000992,-43.835083c-18.498901,-12.832489 -36.499008,-17.333893 -53.665604,-13.665894c-9.83342,1.834015 -18.167305,5.499207 -25.333305,10.666809c-2.332916,1.998413 -3.999687,3.999695 -5.167572,6.165375c-1.165039,2.001251 -1.332283,3.835266 -0.833374,5.000305c1.000626,1.335144 2.999062,1.666779 6.000961,1.000641c29.831902,26.166687 49.49868,44.832886 59.000389,56.165771c7.49765,8.50116 12.832504,12.668152 16.166,12.668152c5.83371,0 18.498901,-7.001587 37.998505,-21.001953l0.000015,0zm-68.831009,-213.83197c-7.834991,-43.832214 -28.167908,-117 -61.001717,-219.167007c9.501755,8.501114 22.501503,23.833801 38.999107,46.332397c2.335739,3.001907 4.668671,4.334183 6.834351,4.334183c5.334808,0 6.000961,-4.498596 2.001251,-13.665909c-1.666779,-3.500793 -15.335495,-25.834991 -41.000397,-66.835396c-19.499603,-31.1642 -33.834396,-58.833199 -43.001701,-82.998598c-2.831818,-7.50049 -8.331039,-11.1657 -15.998798,-11.1657c-7.832142,0 -18.498899,3.6652 -31.8331,11.1657c-8.50112,4.49859 -12.6681,7.99939 -12.6681,10.3323c0,1.83402 1.83402,6.1682 5.33481,12.6681c17.6656,30.832499 37.165101,82.666998 58.665997,155.166006c20.500206,70.333389 32.000404,122.666992 34.667801,156.833008c0.997803,14.666473 -0.501732,21.999695 -4.501427,21.999695c-2.831818,0 -7.99939,-3.665222 -15.499901,-10.831207l-30.333591,-28.335205c-10.666798,-9.666168 -16.166,-10.1651 -16.166,-1.499512c0,2.667389 1.499531,6.000946 4.501431,9.833405c15.16539,21.500793 31.498688,41.833801 48.832504,60.998901c5.167564,5.502045 10.1651,8.333862 14.998093,8.333862c5.334816,0 13.002502,-3.497955 23.000404,-10.666779c15.000999,-3.999695 23.334892,-6.332611 25.001595,-7.333252c7.333252,-4.665833 11.16571,-12.999695 11.16571,-25.497711c0,-5.83371 -0.666153,-12.500793 -1.998428,-20.001282l0.000107,0z"/>
  <path id="svg_5" d="m363.833008,345.166992c-100.001007,-518.5 -229.834,-777.666992 -389.665009,-777.33197c-57.668198,0 -120.001999,31.833099 -187.001999,95.332184c-6.165375,5.83371 -9.331665,11.831818 -9.331665,18c0,9.498932 4.331345,14.167603 13.166992,14.167603c4.498596,0 9.000015,-1.834015 13.167007,-5.334808c53.163895,-45.331787 100.663994,-68.000488 142.664993,-68.000488c134,0 245.831985,197 335.334,590.835022c-54.334564,-93.333702 -101.667953,-160.334003 -141.998947,-200.668004c-16.333298,-16.50049 -30.835304,-24.83439 -43.500603,-24.83439c-11.667397,0 -26.166695,6.50269 -43.500599,19.5024c-30.832499,15.332599 -45.666199,40.331399 -44.333999,75.16649c1.83402,42.667191 18.3345,95.499397 49.3343,158.66703c30.166397,61.497772 61.832298,107.999969 94.666,139.163971c18.498917,17.668396 35.333893,26.50119 50.3349,26.50119c10.998398,0 23.164795,-5.000336 36.498993,-14.666504c1.998444,-1.666779 15.001007,-13.166992 39.166428,-34.667786c4.833069,-4.33136 7.333252,-8.498291 7.333252,-12.832489c0,-5.83371 -3.999725,-8.665558 -11.834778,-8.665558c-4.833038,0 -10.332214,1.332306 -16.49765,4.33136c-9.83342,5.167572 -19.335205,7.834991 -28.834106,7.834991c-13.665894,0 -25.999405,-4.833099 -37.167999,-14.666504c-23.666504,-20.834717 -48.665298,-54.66629 -74.664688,-101.5c-28.335213,-51.5 -45.666214,-98.334076 -52.1661,-140.667015c-1.666782,-11.332901 -2.500172,-21.333588 -2.500172,-29.834698c0,-23.998188 6.499859,-36.164499 19.499599,-36.164499c8.832779,0 18.164398,4.49859 27.833412,13.3314c38.831886,33.168301 77.164894,81.1674 115.332985,144.000004c35.3311,57.832596 60.664413,111.166992 75.66539,159.666992c5.499268,17.166718 8.333893,33.667206 8.333893,49.33432c0,12.333588 2.831818,18.498901 8.665527,18.498901c6.168213,0 18.334503,-6.834351 36.167328,-20.500214c10.666809,-8.166626 14.000275,-22.833099 9.833374,-43.999481l-0.000031,0.000549l-0.000031,0z"/>
  <path id="svg_6" d="m360.834015,325.165985c-30.002014,-82.998596 -50.666595,-152.666 -61.999512,-208.998993c4.833099,4.66584 11.332916,11.667397 19.332306,20.9991c7.99939,9.501755 12.83252,15.000992 14.83371,16.667801c4.498596,5.83371 9.498932,8.832779 14.666504,8.832779c4.833069,0 7.333252,-2.500168 7.333252,-7.333237c0,-2.999069 -1.335144,-6.332611 -3.999695,-10.332306c-30.500916,-45.167297 -50.833832,-91.00079 -61.001709,-137.169009c-2.831818,-12.9997 -7.333252,-19.4996 -13.167023,-19.4996c-5.499207,0 -15.831482,5.167571 -30.665283,15.499901c-8.832779,6.00096 -13.833099,10.834 -15.168198,14.6665c-1.66394,3.668039 -1.66394,10.834 0,21.500801c13.668686,82.667011 30.668106,151.334003 51.168289,206.167011c-28.332291,-46.000702 -66.832596,-96.834503 -115.667984,-152.334c-42.664299,-48.665295 -73.332405,-79.500603 -92.333099,-92.832003c-13.665901,-9.50175 -23.998203,-14.1676 -31.167004,-14.1676c-5.830879,0 -14.8309,4.66584 -26.8328,14.1676c-17.3339,10.3323 -25.999399,24.667099 -25.999399,42.998801c0,3.500797 0.33449,7.667728 1.000629,12.166298c5.83371,48.166401 27.000101,104.168003 63.499001,168.16901c36.501801,63.997894 78.332794,117.998016 125.501007,161.832977c15.332596,14.332001 28.998489,21.333618 41.000397,20.999115c11.664597,-0.666138 33.998795,-15.99881 66.999802,-46.332397c2.831818,-2.667419 4.331329,-5.334808 4.331329,-8.333893c0,-5.167572 -3.497955,-7.834961 -10.332275,-7.834961c-2.500183,0 -5.000336,0.501709 -7.333252,1.50235c-23.000397,9.833435 -41.666504,9.498932 -55.666901,-1.00061c-30.5009,-22.334198 -64.332397,-61.999512 -101.5,-118.667007c-42.998795,-65.001419 -68.833897,-123.667 -77.666595,-175.666c-0.334492,-2.33292 -0.498901,-4.501431 -0.498901,-6.332611c0,-8.16663 3.333549,-12.333599 9.833408,-12.333599c10.998402,0 24.165401,7.664898 39.498005,23.000397c36.501793,35.498302 75.500999,80.163998 117.167992,133.831997c42.667191,55.666901 69.998917,97.665115 82.168106,126.000015c8.665527,20.831879 14.332001,35.498291 16.99939,43.832184c4.166931,14.666504 8.832794,21.999695 13.665894,21.999695c4.833099,0 16.333313,-6.667084 34.166107,-19.998474c7.500488,-5.502075 11.667389,-10.499603 12.16629,-15.168213c0.668976,-3.832458 -0.666138,-10.666809 -4.331329,-20.500214l-0.000458,0.000397z"/>
  <path id="svg_7" d="m252.001007,391.167999c0,-14.666504 -3.99968,-38.16861 -11.834702,-70.333405c-2.831818,-11.168488 -6.165359,-18.334503 -9.666153,-21.500793c-1.666779,-1.666779 -7.166,-4.166931 -16.667801,-7.333252c-11.9991,-4.501434 -19.499603,-6.834351 -22.498596,-6.834351c-4.833084,0 -7.166,3.166321 -7.166,9.833435c0,3.500793 0.498901,8.166626 1.834015,14.167572c7.832138,32.167603 10.831207,54.499023 9.000015,66.999817c-1.666779,12.665192 1.998428,20.500183 10.998398,23.666504c15.99881,8.166626 26.333908,12.333588 30.832504,12.333588c10.000702,0 15.168198,-7.001587 15.168198,-20.999084l0.000122,-0.000031zm-78.168533,-280.335968c1.000641,-38.9991 -20.664597,-65.664711 -64.998581,-79.9995c-5.499222,-13.665901 -10.666801,-23.164801 -15.499901,-28.332301c-7.500488,-7.83214 -18.666199,-12.5008 -33.332703,-13.6659c-9.334511,-0.66898 -19.502399,-0.16723 -30.166399,1.3323c-19.3352,2.99906 -42.8344,6.49986 -70.8351,10.834c-7.832142,1.33229 -12.500801,5.99812 -14.167599,14.16479c1.335117,8.83562 10.335098,14.00031 27.334499,15.6671c23.167599,1.49955 57.333698,5.66647 102.500996,12.166309c16.999413,3.83527 28.998512,13.5014 36.164513,28.834087c4.166939,7.834991 6.335449,17.3339 6.335449,28.834114c0,20.500198 -10.1679,56.500282 -30.668091,108.331993c-20.333,50.502197 -29.667519,84.166504 -28.332298,101.001007c2.50016,40.665894 40.167,68.998291 112.666008,84.999878c7.166,1.666779 10.834,-1.00061 10.834,-7.834961c0,-3.832458 -2.667419,-6.998779 -7.834991,-9.164429c-35.166702,-15.33551 -52.665009,-34.168915 -52.665009,-56.667511c0,-8.832764 1.499542,-19.834106 4.833092,-33.001007c3.166328,-13.166992 12.999718,-44.832886 29.332985,-94.997696c11.9991,-36.167297 18.167313,-63.669098 18.498901,-82.502487l0.000229,0.000221l0,0l0,-0.000008z"/>
  <path id="svg_8" d="m329.165009,367.166992c0,-42.667206 -5.830872,-83.333099 -17.166687,-122.001007c-3.497986,-11.831802 -8.498291,-17.665588 -14.666504,-17.665588c-4.498596,0 -14.666504,6.499847 -30.166412,19.499588c-7.832123,6.499863 -9.833405,15.834396 -5.998108,27.83342c9.164429,29.66748 13.665894,53.498383 13.665894,71.333984c0,6.165375 -1.167877,9.331665 -3.832458,9.331665c-3.835266,0 -10.335083,-5.83371 -19.000687,-17.665588c-67.833206,-88.166199 -118.333008,-187.166 -151.835007,-296.833004c-10.8312,-34.834991 -19.998512,-52.166092 -27.331696,-52.166092c-2.999077,0 -15.834404,5.666471 -38.667503,16.999391c-10.9984,5.49922 -14.8337,16.333301 -11.165701,32.332011c25.6649,112.501984 53.333998,207.667007 82.998602,285.001984c-24.16539,-25.333282 -39.498001,-42.667175 -45.997902,-52.166077c-2.50016,-3.835297 -6.168198,-5.83371 -10.666798,-5.83371c-5.50206,0 -8.333881,2.332916 -8.333881,7.333221c0,2.831818 1.332291,6.165375 3.999691,9.666168c15.8344,19.332306 37.167995,48.500916 63.8335,87.998901c8.166626,14.334808 16.333298,21.500793 24.499886,21.500793c5.83371,0 17.665619,-4.665833 35.665619,-13.665894c10.000702,-5.334808 11.667389,-12.333588 4.833069,-21.001892c-7.166,-9.498932 -20.664612,-42.831604 -40.498688,-100.165009c-18.833405,-55.666916 -32.000404,-99.334702 -39.16642,-130.833c44.334007,98.665718 94.666008,185.667046 150.999016,261.165031c10.666809,14.334778 19.335175,21.500824 25.835022,21.500824c5.830841,0 13.833099,-3.832489 23.998199,-11.667419c13.668701,-1.66394 22.166962,-3.832489 25.834961,-6.332611c5.499237,-3.999725 8.331024,-11.831818 8.331024,-23.499329l-0.000031,-0.000763z"/>
  <style type="text/css">
   <![CDATA[
    @font-face { font-family:"Pristina";src:url("#FontID0") format(svg)}
    .fil0 {fill:#ED3237}
    .fil2 {fill:#FEFEFE}
    .fil1 {fill:#FEFEFE;fill-rule:nonzero}
    .fnt0 {font-weight:normal;font-size:35.2777;font-family:'Pristina'}
   ]]>
  </style>
 </defs>
 <g>
  <title>background</title>
  <rect fill="none" id="canvas_background" height="87" width="135" y="-1" x="-1"/>
 </g>
 <g>
  <title>Layer 1</title>
  <g stroke="null" id="Camada_x0020_1">
   <metadata stroke="null" transform="translate(-0.49999988079071045,0) translate(0.49999988079071045,0) translate(-0.49999988079071045,0) translate(4.999999046325684,5.999998569488525) translate(1,0) translate(1,0) translate(1,0) translate(1,0) translate(1,0) translate(1,0) translate(1,0) translate(1,0) translate(0,1) translate(0,1) translate(0,1) translate(0,1) translate(0,1) translate(0,1) translate(0,1) translate(0,1) translate(0,1) translate(0,1) translate(0,1) translate(0,1) translate(0,1) translate(0,1) translate(0,1) translate(0,1) translate(0,1) translate(0,1) translate(0,1) translate(0,1) translate(0,1) translate(0,1) translate(0,1) translate(0,1) translate(0,1) translate(0,1) translate(0,1) translate(0,1) translate(1,0) translate(1,0) translate(1,0) translate(1,0) translate(1,0) translate(1,0) translate(1,0) translate(1,0) translate(1,0) translate(1,0) translate(1,0) translate(1,0) translate(1,0) translate(1,0) translate(1,0) translate(1,0) translate(1,0) translate(1,0) translate(1,0) translate(1,0) translate(1,0) translate(1,0) translate(1,0) translate(1,0) translate(1,0) translate(1,0) translate(1,0) translate(1,0) translate(1,0) translate(1,0) translate(1,0) translate(1,0) translate(1,0) translate(1,0) translate(1,0) translate(1,0) translate(1,0) translate(1,0) translate(1,0) translate(1,0) translate(1,0) translate(1,0) translate(1,0) translate(1,0) translate(1,0) translate(1,0) translate(1,0) translate(-1,0) translate(-1,0) translate(-1,0) translate(-1,0) translate(-1,0) translate(0,1) translate(0,1) translate(0,1) translate(0,1) translate(0,1) translate(0,1) translate(0,1) translate(0,1) translate(0,1) translate(0,1) translate(0,1) translate(0,1) translate(0,1) translate(0,1) translate(0,1) translate(0,1) translate(1,0) translate(1,0) translate(1,0) translate(1,0) translate(1,0) translate(1,0) translate(1,0) translate(1,0) translate(1,0) translate(1,0) translate(1,0) translate(1,0) translate(-1,0) translate(-1,0) translate(-1,0) translate(-1,0) translate(-1,0) translate(-1,0) translate(-1,0) translate(-1,0) translate(-1,0) translate(-1,0) translate(-1,0) translate(-1,0) translate(-1,0) translate(-1,0) translate(-1,0) translate(1,0) translate(1,0) translate(1,0) translate(1,0) translate(1,0) translate(1,0) translate(1,0) translate(1,0) translate(1,0) translate(1,0) translate(1,0) translate(1,0) translate(0,1) translate(0,1) translate(0,1) translate(0,1) translate(0,1) translate(0,1) translate(0,1) translate(0,1) translate(0,1) translate(0,1) translate(0,1) translate(0,1) translate(0,1) translate(0,1) translate(0,1) translate(0,1) translate(0,1) translate(0,1) translate(0,1) translate(0,1) translate(0,1) translate(1,0) translate(1,0) translate(1,0) translate(1,0) translate(1,0) translate(1,0) translate(1,0) translate(1,0) translate(1,0) translate(1,0) translate(1,0) translate(1,0) translate(1,0) translate(1,0) translate(1,0) translate(1,0) translate(1,0) translate(1,0) translate(1,0) translate(1,0) translate(1,0) translate(1,0) translate(1,0) translate(1,0) translate(1,0) translate(1,0) translate(1,0) translate(1,0) translate(1,0) translate(1,0) translate(1,0) translate(1,0) translate(1,0) translate(1,0) translate(1,0) translate(1,0) translate(1,0) translate(1,0) translate(1,0) translate(1,0) translate(1,0) translate(1,0) translate(1,0) translate(1,0) translate(1,0) translate(1,0) translate(1,0) translate(1,0) translate(1,0) translate(1,0) translate(1,0) translate(1,0) translate(1,0) translate(1,0) translate(1,0) translate(1,0) translate(1,0) translate(1,0) translate(1,0) translate(1,0) translate(1,0) translate(1,0) translate(1,0) translate(1,0) translate(1,0) translate(1,0) translate(1,0) translate(1,0) translate(1,0) translate(1,0) translate(1,0) translate(1,0) translate(1,0) translate(1,0) translate(1,0) translate(1,0) translate(1,0) translate(1,0) translate(1,0) translate(1,0) translate(0,1) translate(0,1) translate(0,1) translate(0,1) translate(0,1) translate(0,1) translate(0,1) translate(0,1) translate(0,1) translate(0,1) translate(0,1) translate(0,1) translate(0,1) translate(0,1) translate(0,1) translate(0,1) translate(0,1) translate(0,1) translate(0,1) translate(0,1) translate(0,1) translate(0,1) translate(0,1) translate(0,1) translate(0,1) translate(0,1) translate(0,1) translate(0,1) translate(0,1) translate(0,1) translate(0,1) translate(0,1) translate(0,1) translate(0,1) translate(0,1) translate(0,1) translate(0,1) translate(0,1) translate(0,1) translate(0,1) translate(1,0) translate(1,0) translate(1,0) translate(1,0) translate(1,0) translate(1,0) translate(1,0) translate(-322.14794921875,-198.5714569091797) scale(0.7425686717033386,0.7175330519676208) translate(322.14794921875,198.5714569091797) translate(-320.7079772949219,-190.66102600097656) scale(0.9282737374305725,0.9013084769248962) translate(320.7079772949219,190.66102600097656) translate(-255.5308380126953,-143.84393310546875) scale(0.8016732931137085,0.712318480014801) translate(255.5308380126953,143.84393310546875) translate(-318.7468566894531,-202.6766815185547) scale(0.9662649035453796,0.9659364223480225) translate(318.7468566894531,202.6766815185547) " id="CorelCorpID_0Corel-Layer"/>
   <g stroke="null" id="_323018360">
    <path stroke="null" d="m99.380928,1.648102c-1.488503,1.096335 -3.10537,2.487068 -4.772217,4.160576c-6.116463,6.141024 -12.738701,16.45921 -14.977005,33.242286c-2.228737,16.711773 -8.054688,27.654015 -13.295418,34.402679c-1.993057,2.566467 -6.076733,7.103096 -9.791756,9.25106l-0.168419,0.069458c3.17836,-2.421333 5.875591,-5.360977 7.966316,-8.053101c5.324341,-6.856262 11.179718,-17.891537 13.417389,-34.669228c2.228043,-16.706623 8.809593,-26.896693 14.780701,-32.891738c2.504845,-2.514937 4.905762,-4.295185 6.840408,-5.511994z" class="fil0" id="_323021840"/>
    <path stroke="null" d="m126.165466,46.485229c0.037666,1.382324 -0.778221,2.327469 -2.447762,2.835514c-0.207069,0.484409 -0.401703,0.821148 -0.583717,1.004242c-0.282455,0.277641 -0.702919,0.443138 -1.255257,0.484402c-0.351585,0.023735 -0.734505,0.005978 -1.13607,-0.04723c-0.728081,-0.106239 -1.613113,-0.230335 -2.667549,-0.383961c-0.294998,-0.04723 -0.470749,-0.212646 -0.533531,-0.502083c0.050247,-0.313171 0.38916,-0.496269 1.029404,-0.555378c0.872406,-0.053112 2.159134,-0.200775 3.860085,-0.431183c0.640106,-0.13596 1.091995,-0.478592 1.361832,-1.022007c0.157005,-0.277729 0.238647,-0.614471 0.238647,-1.022091c0,-0.726593 -0.382919,-2.002579 -1.154976,-3.839832c-0.765709,-1.79002 -1.117233,-2.98325 -1.066986,-3.579941c0.0942,-1.441425 1.51268,-2.445671 4.242935,-3.012821c0.269836,-0.059101 0.408028,0.035446 0.408028,0.277725c0,0.135792 -0.100449,0.24802 -0.295082,0.324783c-1.324356,0.543594 -1.98333,1.211174 -1.98333,2.008572c0,0.313084 0.056458,0.703022 0.18206,1.169743c0.119209,0.466724 0.489502,1.589062 1.104614,3.367222c0.451859,1.281971 0.68412,2.256737 0.696655,2.924324z" class="fil1" id="_323022080"/>
    <path stroke="null" d="m129.109039,36.548405c0,0.519924 -0.150604,1.352936 -0.445724,2.492954c-0.106598,0.395924 -0.232162,0.649914 -0.364029,0.762127c-0.062775,0.059105 -0.269806,0.147755 -0.627701,0.259968c-0.451851,0.159527 -0.734314,0.242199 -0.847183,0.242199c-0.182014,0 -0.269958,-0.112221 -0.269958,-0.34853c0,-0.124096 0.018799,-0.289417 0.069145,-0.502167c0.294914,-1.140194 0.407883,-1.931698 0.338921,-2.374844c-0.06279,-0.448872 0.075195,-0.726601 0.414207,-0.83881c0.602486,-0.289524 0.991646,-0.43718 1.161064,-0.43718c0.376633,0 0.571259,0.248184 0.571259,0.744282z" class="fil1" id="_323020832"/>
    <path stroke="null" d="m118.419731,38.645615c-0.295082,1.553638 -1.060776,4.14711 -2.297234,7.768402c0.357758,-0.301296 0.847374,-0.844795 1.468651,-1.642273c0.087898,-0.106422 0.175842,-0.153645 0.257317,-0.153645c0.200981,0 0.226021,0.159447 0.075401,0.484402c-0.062813,0.124092 -0.577553,0.915771 -1.544044,2.368969c-0.734337,1.10466 -1.274117,2.085415 -1.619362,2.941906c-0.106613,0.265862 -0.313759,0.395752 -0.602509,0.395752c-0.294975,0 -0.696663,-0.12989 -1.198784,-0.395752c-0.320107,-0.159435 -0.477089,-0.283535 -0.477089,-0.366196c0,-0.064995 0.069038,-0.218632 0.200859,-0.449055c0.665298,-1.09288 1.399628,-2.930126 2.209351,-5.499859c0.77198,-2.49297 1.205055,-4.3479 1.305511,-5.558887c0.037575,-0.519939 -0.018867,-0.779808 -0.169502,-0.779808c-0.106606,0 -0.301231,0.129902 -0.583694,0.383881l-1.142365,1.004322c-0.401688,0.342644 -0.608757,0.360306 -0.608757,0.053204c0,-0.094536 0.056442,-0.21273 0.169495,-0.348598c0.571106,-0.762054 1.186218,-1.48275 1.83905,-2.162037c0.19455,-0.195057 0.382698,-0.295418 0.564735,-0.295418c0.200974,0 0.489685,0.123932 0.86615,0.378082c0.564941,0.141773 0.878784,0.224445 0.941574,0.25988c0.276184,0.165421 0.420464,0.460835 0.420464,0.903809c0,0.206757 -0.025032,0.443054 -0.075218,0.70892z" class="fil1" id="_323021336"/>
    <path stroke="null" d="m121.011787,31.066374c0.20089,0.135798 0.295059,0.289427 0.295059,0.466553c0,0.330936 -0.52726,0.850779 -1.581703,1.553804c-0.696663,0.454842 -1.374474,0.614372 -2.02095,0.484306c-0.370293,-0.064991 -0.684151,-0.194885 -0.953995,-0.378067c-0.087921,-0.070801 -0.150719,-0.141769 -0.194618,-0.21854c-0.043915,-0.070889 -0.050201,-0.135883 -0.031395,-0.177212c0.037666,-0.047314 0.112953,-0.059097 0.226013,-0.035442c1.123383,-0.927467 1.863983,-1.589159 2.221855,-1.990805c0.282349,-0.301296 0.483253,-0.449041 0.608727,-0.449041c0.21978,0 0.696686,0.248177 1.431007,0.744444z" class="fil1" id="_323021096"/>
    <path stroke="null" d="m111.396683,38.887897c-1.129829,2.941837 -1.908081,5.411236 -2.334808,7.407921c0.181999,-0.165333 0.426727,-0.413513 0.728058,-0.744274c0.301254,-0.336823 0.483177,-0.531704 0.558586,-0.590809c0.169395,-0.206753 0.357658,-0.31308 0.552292,-0.31308c0.18203,0 0.276199,0.088634 0.276199,0.259956c0,0.106316 -0.050262,0.224449 -0.150627,0.366203c-1.148605,1.600948 -1.914322,3.225536 -2.297249,4.861916c-0.106674,0.460838 -0.276199,0.691257 -0.495857,0.691257c-0.207069,0 -0.596222,-0.183201 -1.154785,-0.549488c-0.332657,-0.212646 -0.521027,-0.383976 -0.571274,-0.519836c-0.062622,-0.129982 -0.062622,-0.383968 0,-0.762035c0.51474,-2.930141 1.154976,-5.364086 1.926964,-7.307674c-1.067001,1.630508 -2.516853,3.43232 -4.355965,5.399536c-1.606682,1.724957 -2.761566,2.817917 -3.477097,3.29044c-0.514648,0.336746 -0.903816,0.502178 -1.173752,0.502178c-0.219574,0 -0.558479,-0.165432 -1.010544,-0.502178c-0.65274,-0.36628 -0.979027,-0.874336 -0.979027,-1.524078c0,-0.124092 0.012611,-0.271828 0.037643,-0.431271c0.219673,-1.707268 1.0168,-3.692249 2.391357,-5.960705c1.37455,-2.268444 2.949913,-4.182468 4.726151,-5.736176c0.577438,-0.50806 1.092087,-0.756241 1.544067,-0.744366c0.439232,0.023651 1.280342,0.56707 2.52317,1.642269c0.106621,0.094543 0.16304,0.189087 0.16304,0.295406c0,0.183189 -0.131645,0.277737 -0.389046,0.277737c-0.094193,0 -0.188309,-0.01786 -0.276131,-0.053295c-0.866257,-0.348522 -1.569183,-0.336662 -2.096359,0.035435c-1.148613,0.791683 -2.422714,2.197659 -3.822433,4.206207c-1.619278,2.303978 -2.592224,4.383415 -2.92485,6.226482c-0.012527,0.082664 -0.018791,0.159534 -0.018791,0.224434c0,0.289513 0.125572,0.437168 0.370384,0.437168c0.414116,0 0.909996,-0.27166 1.487427,-0.815247c1.374557,-1.258221 2.843315,-2.8414 4.412399,-4.743637c1.606728,-1.973125 2.636055,-3.461761 3.09436,-4.466087c0.326263,-0.738384 0.539696,-1.258312 0.640129,-1.553623c0.156967,-0.519943 0.332649,-0.779804 0.514664,-0.779804c0.181999,0 0.615089,0.236298 1.286652,0.708824c0.28244,0.195049 0.439438,0.372185 0.458199,0.537624c0.025124,0.135868 -0.025139,0.378139 -0.163147,0.726669z" class="fil1" id="_323021168"/>
    <path stroke="null" d="m96.721817,44.251808c-0.734421,1.051476 -1.694687,2.575645 -2.868362,4.566441c-0.219765,0.519844 -0.439423,1.039768 -0.646484,1.559608c-0.169563,0.360386 -0.395424,0.537605 -0.677895,0.537605c-0.21965,0 -0.546127,-0.08857 -0.979111,-0.259884c-0.477005,-0.183189 -0.715553,-0.366367 -0.715553,-0.555351c0,-0.076881 0.081581,-0.259888 0.238548,-0.537617c0.797012,-1.518185 1.512581,-3.420506 2.13401,-5.688873c0.677795,-2.392609 0.960251,-4.212097 0.866158,-5.470406c-0.025215,-0.508049 -0.150597,-0.762039 -0.370285,-0.762039c-0.156975,0 -0.395515,0.141766 -0.71553,0.431282c-3.088112,2.84148 -5.761826,6.634094 -8.015175,11.389591c-0.282455,0.584923 -0.615089,0.880165 -0.997887,0.880165c-0.269943,0 -0.715569,-0.141781 -1.336914,-0.431202c-0.251076,-0.106319 -0.376633,-0.200855 -0.389069,-0.295311c0,-0.047321 0.068962,-0.206768 0.200798,-0.484486c0.715523,-1.464989 1.418457,-3.319916 2.11512,-5.570755c0.746948,-2.433952 1.173698,-4.336109 1.267876,-5.694767c0.025055,-0.413605 0.012604,-0.626175 -0.03775,-0.626175c-0.012436,0 -0.181915,0.159454 -0.514565,0.472542c-0.326378,0.307186 -0.790855,0.714806 -1.374565,1.210995c-0.113045,0.10043 -0.232269,0.153629 -0.370293,0.153629c-0.169495,0 -0.257416,-0.06498 -0.257416,-0.188992c0,-0.094536 0.062805,-0.195061 0.182037,-0.313175c0.52726,-0.63213 1.224014,-1.423637 2.07756,-2.368866c0.188286,-0.194965 0.376648,-0.295406 0.571098,-0.295406c0.295074,0 0.552399,0.200779 0.772072,0.602596c0.997993,0.277645 1.462471,0.708832 1.399681,1.281887c-0.138084,1.270184 -0.828506,3.562199 -2.077576,6.870403c0.822327,-1.488644 2.014809,-3.148682 3.5839,-4.991749c1.56916,-1.837234 2.73658,-2.92432 3.495949,-3.260963c0.376648,-0.159454 0.646492,-0.242294 0.809715,-0.242294c0.156883,0 0.414322,0.124092 0.771988,0.378082c1.016808,0.336826 1.519012,0.892101 1.506393,1.666004c0,0.803383 -0.207146,2.10302 -0.627701,3.893051c-0.326378,1.476841 -0.633873,2.622856 -0.916367,3.444084c0.357872,-0.431282 0.809746,-0.980675 1.362076,-1.665939c0.09407,-0.112297 0.194611,-0.17131 0.294891,-0.17131c0.181984,0 0.276176,0.112217 0.276176,0.330845c0,0.070797 -0.01252,0.135792 -0.037552,0.206749z" class="fil1" id="_323020976"/>
    <path stroke="null" d="m73.919258,38.17889c-3.765892,18.378292 -8.655205,27.564442 -14.674335,27.55257c-2.17168,0 -4.5191,-1.128326 -7.04229,-3.379002c-0.232197,-0.206753 -0.351437,-0.419407 -0.351437,-0.638031c0,-0.336662 0.163155,-0.502167 0.495899,-0.502167c0.169399,0 0.338879,0.064995 0.495861,0.189087c2.002094,1.606827 3.790855,2.410282 5.372559,2.410282c5.046265,0 9.257782,-6.982697 12.628326,-20.942127c-2.046181,3.308216 -3.828674,5.68298 -5.347504,7.112682c-0.615112,0.584839 -1.161232,0.880234 -1.638237,0.880234c-0.439339,0 -0.985394,-0.230492 -1.638134,-0.691231c-1.161152,-0.543507 -1.719711,-1.429646 -1.66954,-2.664291c0.069046,-1.512367 0.690399,-3.384979 1.8578,-5.623943c1.136024,-2.17981 2.32856,-3.828144 3.565018,-4.932743c0.696663,-0.626236 1.330658,-0.939327 1.895554,-0.939327c0.414215,0 0.87236,0.177216 1.374588,0.519836c0.075195,0.059116 0.564911,0.466732 1.474907,1.228851c0.181992,0.153473 0.276184,0.301216 0.276184,0.454845c0,0.206764 -0.150635,0.30711 -0.445694,0.30711c-0.182014,0 -0.389069,-0.047222 -0.621262,-0.153473c-0.370293,-0.18317 -0.728157,-0.277725 -1.085838,-0.277725c-0.514664,0 -0.979118,0.17131 -1.399796,0.51984c-0.891182,0.73848 -1.832672,1.937683 -2.811714,3.597721c-1.067154,1.825386 -1.719807,3.485424 -1.964523,4.985935c-0.062778,0.401634 -0.094177,0.756142 -0.094177,1.057446c0,0.850594 0.244812,1.281868 0.734329,1.281868c0.332634,0 0.684059,-0.159443 1.048164,-0.47253c1.462402,-1.175629 2.905907,-2.876999 4.343361,-5.104118c1.330559,-2.049892 2.284538,-3.940258 2.849472,-5.659386c0.207047,-0.608494 0.313828,-1.193325 0.313828,-1.748692c0,-0.437187 0.106628,-0.655636 0.326302,-0.655636c0.2323,0 0.690506,0.242199 1.362045,0.726601c0.401672,0.289433 0.52726,0.809349 0.370285,1.559513z" class="fil1" id="_323020904"/>
    <path stroke="null" d="m60.789066,37.399181c0,1.512299 -0.219589,2.953701 -0.646496,4.32431c-0.131752,0.419327 -0.320038,0.626167 -0.552307,0.626167c-0.169418,0 -0.552296,-0.230408 -1.136024,-0.691238c-0.294968,-0.230331 -0.370361,-0.561188 -0.225922,-0.986477c0.345161,-1.051636 0.514648,-1.896271 0.514648,-2.528492c0,-0.218544 -0.043995,-0.330761 -0.144344,-0.330761c-0.144382,0 -0.389172,0.206749 -0.715557,0.626163c-2.554482,3.125023 -4.456223,6.634098 -5.717896,10.521244c-0.407864,1.234741 -0.753105,1.84903 -1.029316,1.84903c-0.112972,0 -0.596298,-0.200863 -1.45612,-0.602509c-0.414223,-0.194969 -0.558662,-0.578938 -0.420475,-1.146011c0.966423,-3.987656 2.008446,-7.360771 3.125587,-10.101917c-0.910007,0.897919 -1.487431,1.51239 -1.732258,1.849041c-0.094074,0.135971 -0.232262,0.206753 -0.40168,0.206753c-0.207142,0 -0.313843,-0.082664 -0.313843,-0.259865c0,-0.100445 0.050171,-0.218552 0.150612,-0.34264c0.596317,-0.685265 1.399685,-1.719131 2.40395,-3.119129c0.307514,-0.508144 0.615105,-0.762142 0.922604,-0.762142c0.219681,0 0.665276,0.165436 1.343178,0.484409c0.376541,0.189083 0.439331,0.437168 0.181999,0.744446c-0.26992,0.336658 -0.778236,1.518188 -1.525177,3.550327c-0.709274,1.973125 -1.205063,3.520935 -1.475006,4.637398c1.669643,-3.497208 3.565105,-6.580967 5.686523,-9.256947c0.401676,-0.508144 0.728146,-0.762127 0.972862,-0.762127c0.219589,0 0.520996,0.135868 0.90382,0.413513c0.514744,0.059021 0.834763,0.135876 0.972862,0.224522c0.207153,0.141762 0.313774,0.419323 0.313774,0.83292l0,0.000011z" class="fil1" id="_323021408"/>
    <path stroke="null" d="m47.326115,38.887897c-1.129837,2.941837 -1.907982,5.411236 -2.334812,7.407921c0.182026,-0.165333 0.42683,-0.413513 0.728069,-0.744274c0.301254,-0.336823 0.483261,-0.531704 0.558666,-0.590809c0.169403,-0.206753 0.357677,-0.31308 0.552299,-0.31308c0.182022,0 0.276115,0.088634 0.276115,0.259956c0,0.106316 -0.050266,0.224449 -0.15062,0.366203c-1.148636,1.600948 -1.914352,3.225536 -2.297249,4.861916c-0.106613,0.460838 -0.276108,0.691257 -0.495876,0.691257c-0.20705,0 -0.59613,-0.183201 -1.154785,-0.549488c-0.332645,-0.212646 -0.520912,-0.383976 -0.571198,-0.519836c-0.062702,-0.129982 -0.062702,-0.383968 0,-0.762035c0.514755,-2.930141 1.1549,-5.364086 1.926975,-7.307674c-1.066971,1.630508 -2.516937,3.43232 -4.355965,5.399536c-1.606655,1.724957 -2.761642,2.817917 -3.477177,3.29044c-0.514652,0.336746 -0.903732,0.502178 -1.173679,0.502178c-0.219563,0 -0.558556,-0.165432 -1.010521,-0.502178c-0.652756,-0.36628 -0.979137,-0.874336 -0.979137,-1.524078c0,-0.124092 0.012619,-0.271828 0.037663,-0.431271c0.219765,-1.707268 1.01688,-3.692249 2.391354,-5.960705c1.374649,-2.268444 2.949909,-4.182468 4.726242,-5.736176c0.577431,-0.50806 1.092007,-0.756241 1.54406,-0.744366c0.43924,0.023651 1.280262,0.56707 2.523098,1.642269c0.106598,0.094543 0.16312,0.189087 0.16312,0.295406c0,0.183189 -0.131737,0.277737 -0.389065,0.277737c-0.094193,0 -0.188374,-0.01786 -0.276203,-0.053295c-0.866158,-0.348522 -1.569096,-0.336662 -2.096363,0.035435c-1.148617,0.791683 -2.422649,2.197659 -3.82243,4.206207c-1.619263,2.303978 -2.592148,4.383415 -2.92477,6.226482c-0.012623,0.082664 -0.018787,0.159534 -0.018787,0.224434c0,0.289513 0.125488,0.437168 0.3703,0.437168c0.414196,0 0.910076,-0.27166 1.487427,-0.815247c1.374641,-1.258221 2.843296,-2.8414 4.412392,-4.743637c1.606838,-1.973125 2.636055,-3.461761 3.094379,-4.466087c0.326366,-0.738384 0.53968,-1.258312 0.640209,-1.553623c0.156883,-0.519943 0.332649,-0.779804 0.514576,-0.779804c0.182014,0 0.615093,0.236298 1.286728,0.708824c0.282448,0.195049 0.439335,0.372185 0.458115,0.537624c0.025215,0.135868 -0.025036,0.378139 -0.163151,0.726669z" class="fil1" id="_323021264"/>
    <path stroke="null" d="m37.654675,27.982595c0.087833,0.070967 0.125488,0.153646 0.125488,0.24221c0,0.230413 -0.19463,0.34861 -0.583706,0.34861c-0.075321,0 -0.188267,-0.011881 -0.33889,-0.035528c-0.156971,-0.023577 -0.276199,-0.035439 -0.36404,-0.035439c-0.571194,0 -1.154984,0.53171 -1.744942,1.595045c-2.39135,4.35977 -3.947828,9.78866 -4.66964,16.281076c0.282459,-0.496254 0.652773,-1.157883 1.123503,-1.990807c0.131748,-0.254055 0.294983,-0.378075 0.495779,-0.378075c0.232285,0 0.345253,0.141777 0.345253,0.431198c0,0.141777 -0.03775,0.301315 -0.125584,0.484409c-0.539703,1.199207 -1.035561,2.92416 -1.487425,5.175011c-0.113054,0.496262 -0.351526,0.74435 -0.72191,0.74435c-0.414286,0 -1.048168,-0.301292 -1.889202,-0.898003c-0.407852,-0.289421 -0.640141,-0.519833 -0.702915,-0.691147c-0.069061,-0.165344 -0.069061,-0.496181 0.018869,-1.004238c0.439245,-2.504848 1.010513,-5.328648 1.713442,-8.46545c0.809645,-3.585941 1.393448,-5.706631 1.763729,-6.350567c-1.286827,1.429539 -2.868427,3.532642 -4.745026,6.297447c-1.839046,2.723278 -3.445786,5.316681 -4.820433,7.774197c0.251059,0.714821 0.370287,1.25243 0.370287,1.606831c0,0.448967 -0.401682,1.027912 -1.211231,1.73093c-0.420647,0.372101 -0.69677,0.555283 -0.828516,0.555283c-0.138094,0 -0.495874,-0.460739 -1.085836,-1.382313c-0.257404,-0.395832 -0.389244,-0.70892 -0.389244,-0.939339c0,-0.159439 0.182108,-0.549377 0.53352,-1.175549c-0.784504,-2.747036 -2.209234,-6.090687 -4.280549,-10.036839c-1.324293,3.136883 -2.667453,6.001945 -4.02949,8.583557c0.885036,0.933426 1.324378,1.565498 1.324378,1.884476c0,0.254066 -0.307508,0.419399 -0.916346,0.484398c-1.286632,0.141769 -2.366201,0.762119 -3.23872,1.872696c-0.075314,0.354416 -0.257331,0.537598 -0.55232,0.537598c-0.414284,0 -1.060697,-0.354511 -1.926947,-1.057438c-0.269849,-0.218548 -0.407855,-0.395847 -0.407855,-0.537609c0,-0.124084 0.112963,-0.283531 0.332635,-0.466637c0.822157,-0.667587 1.757462,-1.317486 2.811901,-1.937668c2.278374,-3.568192 4.136104,-7.313564 5.573543,-11.247936c-1.50022,-3.09547 -3.351777,-5.251785 -5.573543,-6.474657c-0.370291,-0.206671 -0.715545,-0.313082 -1.048183,-0.313082c-0.464474,0 -0.953992,0.22444 -1.468737,0.673481c-0.477001,0.484404 -0.960349,0.974684 -1.437346,1.470968c-0.269845,0.289421 -0.545955,0.437166 -0.828416,0.437166c-0.219767,0 -0.326468,-0.106327 -0.326468,-0.313091c0,-0.106312 0.031397,-0.224436 0.106701,-0.366196c1.65702,-3.125195 3.238732,-4.661144 4.745036,-4.602053c1.788853,0.059103 4.111052,2.144444 6.966963,6.2679c0.702938,-1.500517 1.048186,-2.859249 1.048186,-4.070333c0,-0.620193 0.100345,-0.933275 0.294888,-0.933275c0.188362,0 0.615108,0.248003 1.28672,0.744282c0.20089,0.147734 0.288731,0.460741 0.276106,0.933443c-0.025032,0.602499 -0.589954,2.351192 -1.707101,5.245806c2.159154,3.946236 3.791043,7.543957 4.908183,10.798874c4.324463,-6.763996 8.222124,-12.039429 11.674252,-15.837925c0.43309,-0.921665 0.960262,-1.83136 1.581696,-2.73525c0.269859,-0.389771 0.596142,-0.584831 0.979046,-0.584831c0.571293,0 1.594242,0.555283 3.050457,1.660042l0,-0.000011z" class="fil1" id="_323020664"/>
   </g>
   <text stroke="null" transform="matrix(0.8944280387753901,0,0,0.8418475169472259,-152.01758059798448,-111.21678983502099) " id="svg_9" class="fil2 fnt0" y="39.82689" x="-21.946176">Marginais</text>
  </g>
 </g>
</svg>