<?xml version="1.0"?>
<svg width="245" height="185" xmlns="http://www.w3.org/2000/svg">
 <defs>
  <path d="m0,0z" id="svg_1"/>
  <path d="m1035.170044,632.833008c2.332886,-2.001282 3.333496,-4.334167 3.333496,-6.834351c0,-6.499878 -5.16748,-9.833435 -15.499878,-9.833435c-2.001221,0 -5.000305,0.334534 -9,1.000671c-4.166931,0.666138 -7.333252,1.00061 -9.666138,1.00061c-15.168213,0 -30.668091,-15.000977 -46.335205,-45.000122c-63.499023,-123.000977 -104.830994,-276.165955 -123.999023,-459.332985c7.500488,14.000313 17.333923,32.666496 29.834717,56.16581c3.497986,7.166 7.832153,10.666809 13.164124,10.666809c6.168152,0 9.167236,-3.99971 9.167236,-12.166321c0,-3.99968 -1.00061,-8.501099 -3.333557,-13.665878c-14.33197,-33.834419 -27.499023,-82.49971 -39.497986,-146.002007c-3.001892,-14.0003 -9.334534,-20.9991 -19.167908,-20.9991c-11.001282,0 -27.833374,8.49829 -50.167725,25.3333c-10.831177,8.16663 -16.99939,14.6665 -18.666199,19.499601c-1.833984,4.66584 -1.833984,14.000298 0.50177,28.332298c11.664612,70.667908 26.832764,150.335999 45.498962,238.834c21.500793,101.168976 37.000732,161 46.834106,179.166992c-34.168884,-40.33139 -76.167114,-99.666382 -126,-177.666992c-48.832458,-76.833206 -91.499695,-149.998016 -128.002014,-219.331009c6.667114,-20.168499 9.833435,-35.3339 9.833435,-45.334591c0,-12.665199 -10.666809,-28.998499 -32.164795,-48.8325c-11.168518,-10.4996 -18.501831,-15.6671 -21.999695,-15.6671c-3.66803,0 -13.166992,12.9997 -28.834106,38.9991c-6.834351,11.168501 -10.335114,20.001301 -10.335114,26.501202c0,4.498589 4.835907,15.499897 14.167633,33.165401c-20.831909,77.502182 -58.666016,171.834 -113.667023,283.167953c-35.166687,-88.500671 -70.832306,-169.333969 -107,-242.167c23.499298,-26.333893 35.166687,-44.166687 35.166687,-53.166687c0,-7.166 -8.166626,-11.831799 -24.332672,-13.665901c-34.166107,-3.999687 -62.832916,-21.500797 -86.000519,-52.832198c-2.001251,-10.000701 -6.834351,-15.1682 -14.666489,-15.1682c-11.001312,0 -28.167908,10.0007 -51.168304,29.834701c-7.166,6.16537 -10.831207,11.1657 -10.831207,15.165401c0,3.500799 2.999069,7.99939 8.832779,13.167c21.832504,18.833401 46.666901,37.167999 74.667603,54.666298c60.5,100.666985 109.830994,206.333977 148,317.334007c-39.835388,87.332794 -89.002411,148.167053 -148,182.66803c-9.833405,5.830872 -19.000702,8.832764 -27.833389,8.832764c-12.333603,0 -25.333313,-6.332581 -39.002014,-19.000671c-12.665192,-13.665894 -25.500488,-27.499023 -38.165787,-41.499329c-7.166008,-8.166626 -14.499207,-12.333557 -21.999702,-12.333557c-5.83371,0 -8.668373,2.999023 -8.668373,8.832764c0,2.999084 0.833389,6.332581 2.834648,10.332275c43.999504,88.169006 86.000496,131.502014 126.000008,129.835999c47.50029,-1.666748 109.164993,-60.5 185.000992,-176.834015c18.666199,42.332733 27.833405,80.665741 27.833405,114.835052c0,17.498291 2.664581,26.331055 7.832153,26.331055c5.000336,0 16.333282,-6.998718 34.166107,-20.999084c5.334808,-4.166931 7.667725,-12.999695 7.333221,-26.333862c-0.666138,-16.999451 -15.667084,-66.33374 -45.331787,-148.000061c57.333679,-111.333984 100.667023,-212.834 130.332001,-304.66597c114.835022,190.831985 218.333008,339.664993 310,446.831985c11.500183,26.002319 25.500488,51.667236 42.000977,77.167725c7.166016,10.998413 15.831543,16.500488 25.99939,16.500488c15.168213,0 42.332703,-15.667053 81.000183,-46.834106l0.000977,-0.002258z" id="svg_2"/>
  <path d="m391.167999,173.832001c-19.502411,-29.664597 -45.000092,-72.666298 -76.167114,-128.832001c-5.83371,-14.6665 -11.667389,-29.333 -17.166687,-43.9995c-4.501434,-10.1679 -10.499603,-15.1682 -18,-15.1682c-5.83371,0 -14.502106,2.50016 -25.999405,7.33324c-12.668091,5.16757 -19.000687,10.3351 -19.000687,15.6671c0,2.16851 2.165665,7.333241 6.332611,15.1682c21.16629,42.831604 40.166992,96.500099 56.66748,160.498001c18,67.501602 25.500519,118.834015 23.000427,154.335022c-0.669006,14.332001 -3.999695,21.497986 -9.833435,21.497986c-4.166931,0 -10.50238,-3.999695 -19.000702,-12.16629c-82.000793,-80.166809 -152.999985,-187.166 -212.834,-321.333008c-7.500488,-16.5005 -16.333298,-24.8316 -26.498299,-24.8316c-7.168831,0 -19.000698,3.99969 -35.5012,12.1663c-6.6671,2.99906 -10.0007,5.66647 -10.3323,8.331039c0,1.335121 1.83119,5.833712 5.33198,13.668699c19.0007,41.332104 37.666899,93.665409 56.165804,157.167011c19.834099,68.66658 31.167,122.331985 33.667183,160.665024c0.666153,11.667389 0.334496,17.665588 -1.000626,17.665588c-0.33165,0 -4.833069,-4.498627 -13.665901,-13.331421c-8.665527,-8.668396 -20.9991,-20.168488 -36.499001,-34.166077c-3.0019,-2.834686 -6.168198,-4.334229 -9.833408,-4.334229c-4.501431,0 -6.834351,1.834045 -6.834351,5.332001c0,2.667389 1.666779,5.502075 4.83308,8.835602c14.000298,17.832825 32.502098,40.164246 55.167999,66.832611c5.000343,5.499207 10.000702,8.333893 15.165398,8.333893c7.834984,0 14.666504,-5.666504 20.500206,-17.002197c26.50119,-7.832123 38.834702,-19.998535 37.167984,-36.16449c-3.66803,-35.835693 -21.999695,-100.500015 -55.167984,-193.833008c21.835312,41.998199 53.50119,88.832291 95.167801,140.831024c41.666489,51.834381 72.666321,82.502502 92.832001,92.001465c10.000702,4.498627 17.166718,6.834351 21.500793,6.834351c4.166962,0 11.001312,-3.500763 20.500214,-10.666809c27.000092,-9.50174 40.33432,-25.168854 39.999817,-47.001373c0,-22.665894 -5.499237,-59.332092 -16.667816,-109.834015c-8.665527,-41.666489 -16.832184,-73.998596 -24.332703,-97.166199c9.50174,12.166306 21.500793,27.666199 36.167297,47.001404c2.500183,3.166306 5.167572,4.833084 7.832153,4.833084c4.833069,0 7.333252,-3.166321 7.333252,-9.334518c0,-1.998428 -0.331665,-3.832443 -0.997803,-5.83371l-0.000061,0.000015l0,-0.000015z" id="svg_3"/>
  <path d="m226.998993,545.83197c5.334808,-3.832458 7.834976,-8.166626 7.834976,-13.164124c0,-9.334473 -14.000305,-24.000977 -42.000992,-43.835083c-18.498901,-12.832489 -36.499008,-17.333893 -53.665604,-13.665894c-9.83342,1.834015 -18.167305,5.499207 -25.333305,10.666809c-2.332916,1.998413 -3.999687,3.999695 -5.167572,6.165375c-1.165039,2.001251 -1.332283,3.835266 -0.833374,5.000305c1.000626,1.335144 2.999062,1.666779 6.000961,1.000641c29.831902,26.166687 49.49868,44.832886 59.000389,56.165771c7.49765,8.50116 12.832504,12.668152 16.166,12.668152c5.83371,0 18.498901,-7.001587 37.998505,-21.001953l0.000015,0zm-68.831009,-213.83197c-7.834991,-43.832214 -28.167908,-117 -61.001717,-219.167007c9.501755,8.501114 22.501503,23.833801 38.999107,46.332397c2.335739,3.001907 4.668671,4.334183 6.834351,4.334183c5.334808,0 6.000961,-4.498596 2.001251,-13.665909c-1.666779,-3.500793 -15.335495,-25.834991 -41.000397,-66.835396c-19.499603,-31.1642 -33.834396,-58.833199 -43.001701,-82.998598c-2.831818,-7.50049 -8.331039,-11.1657 -15.998798,-11.1657c-7.832142,0 -18.498899,3.6652 -31.8331,11.1657c-8.50112,4.49859 -12.6681,7.99939 -12.6681,10.3323c0,1.83402 1.83402,6.1682 5.33481,12.6681c17.6656,30.832499 37.165101,82.666998 58.665997,155.166006c20.500206,70.333389 32.000404,122.666992 34.667801,156.833008c0.997803,14.666473 -0.501732,21.999695 -4.501427,21.999695c-2.831818,0 -7.99939,-3.665222 -15.499901,-10.831207l-30.333591,-28.335205c-10.666798,-9.666168 -16.166,-10.1651 -16.166,-1.499512c0,2.667389 1.499531,6.000946 4.501431,9.833405c15.16539,21.500793 31.498688,41.833801 48.832504,60.998901c5.167564,5.502045 10.1651,8.333862 14.998093,8.333862c5.334816,0 13.002502,-3.497955 23.000404,-10.666779c15.000999,-3.999695 23.334892,-6.332611 25.001595,-7.333252c7.333252,-4.665833 11.16571,-12.999695 11.16571,-25.497711c0,-5.83371 -0.666153,-12.500793 -1.998428,-20.001282l0.000107,0z" id="svg_4"/>
  <path d="m363.833008,345.166992c-100.001007,-518.5 -229.834,-777.666992 -389.665009,-777.33197c-57.668198,0 -120.001999,31.833099 -187.001999,95.332184c-6.165375,5.83371 -9.331665,11.831818 -9.331665,18c0,9.498932 4.331345,14.167603 13.166992,14.167603c4.498596,0 9.000015,-1.834015 13.167007,-5.334808c53.163895,-45.331787 100.663994,-68.000488 142.664993,-68.000488c134,0 245.831985,197 335.334,590.835022c-54.334579,-93.333702 -101.667969,-160.334003 -141.998962,-200.668004c-16.333298,-16.50049 -30.835297,-24.83439 -43.500603,-24.83439c-11.667397,0 -26.166695,6.50269 -43.500603,19.5024c-30.832491,15.332599 -45.66619,40.331399 -44.334,75.16649c1.83402,42.667191 18.334499,95.499397 49.334309,158.667015c30.166393,61.497787 61.832294,107.999985 94.665997,139.163986c18.498901,17.668396 35.333893,26.50119 50.3349,26.50119c10.998398,0 23.164795,-5.000336 36.498993,-14.666504c1.998444,-1.666779 15.001007,-13.166992 39.166412,-34.667786c4.833069,-4.33136 7.333252,-8.498291 7.333252,-12.832489c0,-5.83371 -3.999725,-8.665558 -11.834747,-8.665558c-4.833069,0 -10.332245,1.332306 -16.49765,4.33136c-9.833435,5.167572 -19.33522,7.834991 -28.834122,7.834991c-13.665894,0 -25.999405,-4.833099 -37.167999,-14.666504c-23.666504,-20.834717 -48.665298,-54.66629 -74.664696,-101.5c-28.335205,-51.5 -45.666206,-98.334091 -52.1661,-140.667015c-1.666779,-11.332901 -2.500168,-21.333588 -2.500168,-29.834698c0,-23.998188 6.499863,-36.164499 19.499596,-36.164499c8.832787,0 18.164406,4.49859 27.833412,13.3314c38.831894,33.168301 77.164902,81.1674 115.332993,144.000004c35.331085,57.832596 60.664398,111.166992 75.665375,159.666992c5.499268,17.166718 8.333893,33.667206 8.333893,49.33432c0,12.333588 2.831818,18.498901 8.665527,18.498901c6.168213,0 18.334503,-6.834351 36.167328,-20.500214c10.666809,-8.166626 14.000275,-22.833099 9.833374,-43.999481l-0.000031,0.000549z" id="svg_5"/>
  <path d="m360.834015,325.165985c-30.002014,-82.998596 -50.666595,-152.666 -61.999512,-208.998993c4.833099,4.66584 11.332916,11.667397 19.332306,20.9991c7.99939,9.501755 12.83252,15.000992 14.83371,16.667801c4.498596,5.83371 9.498932,8.832779 14.666504,8.832779c4.833069,0 7.333252,-2.500168 7.333252,-7.333237c0,-2.999069 -1.335144,-6.332611 -3.999695,-10.332306c-30.500916,-45.167297 -50.833832,-91.00079 -61.001709,-137.169009c-2.831818,-12.9997 -7.333252,-19.4996 -13.167023,-19.4996c-5.499207,0 -15.831482,5.167571 -30.665283,15.499901c-8.832779,6.00096 -13.833099,10.834 -15.168198,14.6665c-1.66394,3.668039 -1.66394,10.834 0,21.500801c13.668686,82.667011 30.668106,151.334003 51.168289,206.167011c-28.332291,-46.000702 -66.832596,-96.834503 -115.667984,-152.334c-42.664299,-48.665295 -73.332405,-79.500603 -92.333099,-92.832003c-13.665901,-9.50175 -23.998203,-14.1676 -31.167004,-14.1676c-5.830879,0 -14.8309,4.66584 -26.8328,14.1676c-17.3339,10.3323 -25.999399,24.667099 -25.999399,42.998801c0,3.500797 0.33449,7.667728 1.000629,12.166298c5.83371,48.166401 27.000101,104.168003 63.499001,168.16901c36.501801,63.997894 78.332794,117.998016 125.501007,161.832977c15.332596,14.332001 28.998489,21.333618 41.000397,20.999115c11.664597,-0.666138 33.998795,-15.99881 66.999802,-46.332397c2.831818,-2.667419 4.331329,-5.334808 4.331329,-8.333893c0,-5.167572 -3.497955,-7.834961 -10.332275,-7.834961c-2.500183,0 -5.000336,0.501709 -7.333252,1.50235c-23.000397,9.833435 -41.666504,9.498932 -55.666901,-1.00061c-30.5009,-22.334198 -64.332397,-61.999512 -101.5,-118.667007c-42.998795,-65.001419 -68.833897,-123.667 -77.666595,-175.666c-0.334492,-2.33292 -0.498901,-4.501431 -0.498901,-6.332611c0,-8.16663 3.333549,-12.333599 9.833408,-12.333599c10.998402,0 24.165401,7.664898 39.498005,23.000397c36.501793,35.498302 75.500999,80.163998 117.167992,133.831997c42.667191,55.666901 69.998917,97.665115 82.168106,126.000015c8.665527,20.831879 14.332001,35.498291 16.99939,43.832184c4.166931,14.666504 8.832794,21.999695 13.665894,21.999695c4.833099,0 16.333313,-6.667084 34.166107,-19.998474c7.500488,-5.502075 11.667389,-10.499603 12.16629,-15.168213c0.668976,-3.832458 -0.666138,-10.666809 -4.331329,-20.500214l-0.000458,0.000397z" id="svg_6"/>
  <path d="m252.001007,391.167999c0,-14.666504 -3.99968,-38.16861 -11.834702,-70.333405c-2.831818,-11.168488 -6.165359,-18.334503 -9.666153,-21.500793c-1.666779,-1.666779 -7.166,-4.166931 -16.667801,-7.333252c-11.9991,-4.501434 -19.499603,-6.834351 -22.498596,-6.834351c-4.833084,0 -7.166,3.166321 -7.166,9.833435c0,3.500793 0.498901,8.166626 1.834015,14.167572c7.832138,32.167603 10.831207,54.499023 9.000015,66.999817c-1.666779,12.665192 1.998428,20.500183 10.998398,23.666504c15.99881,8.166626 26.333908,12.333588 30.832504,12.333588c10.000702,0 15.168198,-7.001587 15.168198,-20.999084l0.000122,-0.000031zm-78.168533,-280.335968c1.000641,-38.9991 -20.664597,-65.664711 -64.998581,-79.9995c-5.499222,-13.665901 -10.666801,-23.164801 -15.499901,-28.332301c-7.500488,-7.83214 -18.666199,-12.5008 -33.332703,-13.6659c-9.334511,-0.66898 -19.502399,-0.16723 -30.166399,1.3323c-19.3352,2.99906 -42.8344,6.49986 -70.8351,10.834c-7.832142,1.33229 -12.500801,5.99812 -14.167599,14.16479c1.335117,8.83562 10.335098,14.00031 27.334499,15.6671c23.167599,1.499542 57.333698,5.66647 102.500996,12.166309c16.999413,3.83527 28.998512,13.5014 36.164513,28.834087c4.166939,7.834991 6.335449,17.3339 6.335449,28.834114c0,20.500198 -10.1679,56.500282 -30.668098,108.331993c-20.333,50.502197 -29.667511,84.166504 -28.332298,101.001007c2.50016,40.665894 40.167,68.998291 112.666,84.999878c7.166,1.666779 10.834,-1.00061 10.834,-7.834961c0,-3.832458 -2.667404,-6.998779 -7.834976,-9.164429c-35.166702,-15.33551 -52.665009,-34.168915 -52.665009,-56.667511c0,-8.832764 1.499535,-19.834106 4.833084,-33.001007c3.166321,-13.166992 12.99971,-44.832886 29.332993,-94.997696c11.9991,-36.167297 18.167313,-63.669098 18.498901,-82.502487l0.000229,0.000221l0,-0.000008z" id="svg_7"/>
  <path d="m329.165009,367.166992c0,-42.667206 -5.830872,-83.333099 -17.166687,-122.001007c-3.497986,-11.831802 -8.498291,-17.665588 -14.666504,-17.665588c-4.498596,0 -14.666504,6.499847 -30.166412,19.499588c-7.832123,6.499863 -9.833405,15.834396 -5.998108,27.83342c9.164429,29.66748 13.665894,53.498383 13.665894,71.333984c0,6.165375 -1.167877,9.331665 -3.832458,9.331665c-3.835266,0 -10.335083,-5.83371 -19.000687,-17.665588c-67.833206,-88.166199 -118.333008,-187.166 -151.835007,-296.833004c-10.8312,-34.834991 -19.998512,-52.166092 -27.331696,-52.166092c-2.999077,0 -15.834404,5.666471 -38.667503,16.999391c-10.9984,5.49922 -14.8337,16.333301 -11.165701,32.332011c25.6649,112.501984 53.333998,207.667007 82.998602,285.001984c-24.165398,-25.333282 -39.498001,-42.667175 -45.997902,-52.166077c-2.50016,-3.835297 -6.168198,-5.83371 -10.666798,-5.83371c-5.50206,0 -8.333881,2.332916 -8.333881,7.333221c0,2.831818 1.332291,6.165375 3.999691,9.666168c15.8344,19.332306 37.167995,48.500916 63.8335,87.998901c8.166626,14.334808 16.333298,21.500793 24.499886,21.500793c5.83371,0 17.665619,-4.665833 35.665619,-13.665894c10.000702,-5.334808 11.667389,-12.333588 4.833069,-21.001892c-7.166,-9.498932 -20.664612,-42.831604 -40.498688,-100.165009c-18.833405,-55.666916 -32.000404,-99.334702 -39.16642,-130.833c44.334007,98.665718 94.666008,185.667015 150.999016,261.165031c10.666794,14.334778 19.335175,21.500793 25.835022,21.500793c5.830841,0 13.833099,-3.832458 23.998199,-11.667419c13.668701,-1.66394 22.166962,-3.832458 25.834961,-6.332611c5.499237,-3.999695 8.331024,-11.831787 8.331024,-23.499298l-0.000031,-0.000763z" id="svg_8"/>
  <style type="text/css">
   <![CDATA[
    @font-face { font-family:"Pristina";src:url("#FontID0") format(svg)}
    .fil0 {fill:#ED3237}
    .fil2 {fill:#FEFEFE}
    .fil1 {fill:#FEFEFE;fill-rule:nonzero}
    .fnt0 {font-weight:normal;font-size:35.2777;font-family:'Pristina'}
   ]]>
  </style>
 </defs>
 <g>
  <title>background</title>
  <rect x="-1" y="-1" width="247" height="187" id="canvas_background" fill="none"/>
 </g>
 <g>
  <title>Layer 1</title>
  <g id="Camada_x0020_1" stroke="null">
   <metadata transform="translate(0,-0.197113037109375) translate(1,0) translate(-1,0) translate(-1,0) translate(-1,0) translate(-1,0) translate(-1,0) translate(-1,0) translate(-1,0) translate(-1,0) translate(-1,0) translate(-1,0) translate(-1,0) translate(-1,0) translate(-1,0) translate(-1,0) translate(-1,0) translate(-1,0) translate(-1,0) translate(-1,0) translate(-1,0) translate(-1,0) translate(-1,0) translate(-1,0) translate(-1,0) translate(-1,0) translate(-1,0) translate(-1,0) translate(-1,0) translate(-1,0) translate(-1,0) translate(-1,0) translate(-1,0) translate(-1,0) translate(-1,0) translate(-1,0) translate(-1,0) translate(-1,0) translate(-1,0) translate(-1,0) translate(-1,0) translate(-1,0) translate(-1,0) translate(-1,0) translate(0,-1) translate(0,-1) translate(0,-1) translate(0,-1) translate(0,-1) translate(0,-1) translate(0,-1) translate(0,-1) translate(1,0) translate(1,0) translate(1,0) translate(1,0) translate(1,0) translate(1,0) translate(1,0) translate(1,0) translate(1,0) translate(1,0) translate(1,0) translate(1,0) translate(1,0) translate(1,0) translate(1,0) translate(0,-1) translate(0,-1) translate(0,-1) translate(0,-1) translate(0,-1) translate(0,-1) translate(0,-1) translate(0,-1) " id="CorelCorpID_0Corel-Layer"/>
   <g id="_323018360" stroke="null">
    <path id="_323021840" class="fil0" d="m185.433899,1.459227c-2.787689,2.4638 -5.815765,5.589201 -8.937469,9.35008c-11.454956,13.800751 -23.857178,36.988861 -28.049103,74.705532c-4.173981,37.556435 -15.084885,62.146996 -24.89978,77.313301c-3.732605,5.767609 -11.380554,15.962799 -18.338074,20.789948l-0.31543,0.156082c5.952469,-5.441452 11.003876,-12.047729 14.919388,-18.097778c9.971497,-15.408096 20.9375,-40.207718 25.128235,-77.912292c4.172684,-37.544868 16.498703,-60.445042 27.681458,-73.917742c4.691086,-5.651821 9.187531,-9.65259 12.810776,-12.387131z" stroke="null"/>
    <path id="_323022080" class="fil1" d="m235.596252,102.221893c0.070526,3.106506 -1.457489,5.230522 -4.584229,6.372276c-0.387787,1.0886 -0.752289,1.84536 -1.09317,2.256828c-0.528992,0.623947 -1.316437,0.99588 -2.350861,1.088593c-0.658447,0.053345 -1.37558,0.013428 -2.127655,-0.10614c-1.363525,-0.238747 -3.021057,-0.517616 -4.995789,-0.862885c-0.55249,-0.10614 -0.881622,-0.47789 -0.999207,-1.128319c0.094116,-0.703796 0.728821,-1.115273 1.927856,-1.248093c1.633881,-0.119377 4.043671,-0.45121 7.229218,-0.969017c1.198822,-0.305527 2.045105,-1.075539 2.550476,-2.296753c0.294006,-0.62413 0.44693,-1.38089 0.44693,-2.296944c0,-1.632881 -0.717133,-4.500427 -2.163055,-8.62928c-1.434052,-4.02272 -2.092377,-6.704277 -1.99826,-8.045227c0.176422,-3.239304 2.832947,-5.496147 7.946198,-6.770706c0.505341,-0.132813 0.76416,0.079659 0.76416,0.62413c0,0.305168 -0.18811,0.557373 -0.552612,0.729881c-2.480286,1.221619 -3.714386,2.721878 -3.714386,4.513878c0,0.703583 0.105713,1.579887 0.340942,2.628761c0.223267,1.048866 0.916748,3.571129 2.068726,7.567177c0.846222,2.880959 1.28125,5.071579 1.304718,6.571838z" stroke="null"/>
    <path id="_323020832" class="fil1" d="m241.109009,79.890823c0,1.168434 -0.282074,3.040466 -0.834747,5.60244c-0.199646,0.889755 -0.434814,1.460541 -0.681763,1.71273c-0.117584,0.132813 -0.505341,0.332047 -1.175568,0.584221c-0.846252,0.358505 -1.375244,0.544289 -1.586639,0.544289c-0.340881,0 -0.505554,-0.25219 -0.505554,-0.783249c0,-0.27887 0.035187,-0.650406 0.129486,-1.12851c0.552307,-2.56237 0.763855,-4.341125 0.634705,-5.337006c-0.117584,-1.008751 0.140839,-1.632889 0.775726,-1.885063c1.128357,-0.650642 1.857178,-0.982475 2.174469,-0.982475c0.705353,0 1.069885,0.557739 1.069885,1.672623z" stroke="null"/>
    <path id="_323021336" class="fil1" d="m221.089966,84.603897c-0.552643,3.491493 -1.986664,9.319809 -4.302307,17.457962c0.670013,-0.677101 1.586975,-1.898514 2.750488,-3.690689c0.164642,-0.239151 0.329346,-0.345276 0.481934,-0.345276c0.376404,0 0.423279,0.358322 0.141205,1.0886c-0.117615,0.27887 -1.081635,2.058006 -2.891693,5.323776c-1.375275,2.482513 -2.3862,4.686569 -3.032745,6.611374c-0.199677,0.597466 -0.587646,0.889366 -1.128387,0.889366c-0.552429,0 -1.304718,-0.291901 -2.245117,-0.889366c-0.599487,-0.358315 -0.893494,-0.637184 -0.893494,-0.822968c0,-0.146057 0.129303,-0.491318 0.37619,-1.009148c1.245972,-2.456039 2.621216,-6.5849 4.137665,-12.359863c1.44577,-5.602478 2.256866,-9.771042 2.444977,-12.492516c0.070374,-1.168457 -0.035339,-1.752464 -0.317444,-1.752464c-0.199646,0 -0.564148,0.291931 -1.09314,0.862701l-2.139435,2.257019c-0.752289,0.770004 -1.140076,0.809723 -1.140076,0.119568c0,-0.212471 0.105713,-0.478081 0.317444,-0.783424c1.06955,-1.712555 2.221527,-3.332176 3.444183,-4.858749c0.364319,-0.438354 0.716705,-0.663887 1.057648,-0.663887c0.376373,0 0.917084,0.278503 1.622131,0.84967c1.058014,0.318596 1.645782,0.504372 1.763367,0.58403c0.517242,0.37175 0.787445,1.035614 0.787445,2.03112c0,0.464653 -0.046875,0.995689 -0.140839,1.593163z" stroke="null"/>
    <path id="_323021096" class="fil1" d="m225.944366,67.571037c0.376251,0.305168 0.552612,0.650436 0.552612,1.048492c0,0.743706 -0.987457,1.911949 -2.96225,3.491859c-1.304718,1.022179 -2.574127,1.380692 -3.784851,1.088387c-0.693481,-0.146042 -1.281281,-0.437965 -1.786652,-0.84964c-0.164642,-0.159096 -0.282257,-0.318581 -0.364471,-0.491119c-0.082245,-0.159309 -0.094025,-0.305359 -0.058807,-0.398247c0.070526,-0.106331 0.211548,-0.132813 0.423279,-0.079651c2.103882,-2.08429 3.490906,-3.57132 4.161102,-4.473938c0.528809,-0.677101 0.90506,-1.009132 1.140045,-1.009132c0.411591,0 1.304749,0.557732 2.679993,1.672989z" stroke="null"/>
    <path id="_323021168" class="fil1" d="m207.937103,85.148384c-2.115952,6.611206 -3.573471,12.16069 -4.372635,16.64785c0.340851,-0.371567 0.799164,-0.929291 1.363495,-1.672615c0.564194,-0.756943 0.904907,-1.194923 1.046127,-1.327721c0.317276,-0.464638 0.66983,-0.703598 1.034363,-0.703598c0.340881,0 0.517242,0.199203 0.517242,0.584213c0,0.23893 -0.094116,0.504387 -0.282074,0.822975c-2.151138,3.597801 -3.58519,7.248756 -4.302322,10.926208c-0.199799,1.035637 -0.517242,1.553444 -0.92865,1.553444c-0.387802,0 -1.116608,-0.411697 -2.162689,-1.234856c-0.623001,-0.47789 -0.975769,-0.8629 -1.069901,-1.168228c-0.117264,-0.292114 -0.117264,-0.8629 0,-1.71254c0.96402,-6.584908 2.163071,-12.054733 3.608841,-16.422554c-1.99826,3.664246 -4.713562,7.71344 -8.157898,12.134392c-3.008987,3.876503 -5.171875,6.332718 -6.511917,7.39463c-0.963867,0.75676 -1.692703,1.12854 -2.198227,1.12854c-0.411224,0 -1.045929,-0.37178 -1.892532,-1.12854c-1.222488,-0.823151 -1.833572,-1.964912 -1.833572,-3.425072c0,-0.27887 0.023636,-0.610886 0.070526,-0.969208c0.411407,-3.836746 1.904251,-8.297607 4.478561,-13.3955c2.574249,-5.097893 5.524612,-9.399292 8.851181,-12.89093c1.081421,-1.141777 2.045273,-1.699501 2.891724,-1.672821c0.822601,0.053154 2.397858,1.274368 4.725433,3.690689c0.199677,0.212456 0.305359,0.424919 0.305359,0.663864c0,0.411659 -0.246552,0.62413 -0.728638,0.62413c-0.176407,0 -0.352646,-0.040123 -0.51712,-0.119751c-1.622345,-0.783249 -2.938797,-0.756584 -3.926117,0.079628c-2.151138,1.77916 -4.537292,4.938805 -7.158661,9.452629c-3.032593,5.177734 -4.854752,9.850883 -5.477707,13.992805c-0.023468,0.185776 -0.035187,0.358505 -0.035187,0.504364c0,0.65062 0.235199,0.98246 0.693665,0.98246c0.775558,0 1.704224,-0.610519 2.785675,-1.832115c2.57428,-2.827614 5.324951,-6.385483 8.263565,-10.6604c3.00914,-4.434212 4.936829,-7.779625 5.795166,-10.036644c0.611038,-1.659386 1.010727,-2.827805 1.198853,-3.491478c0.293961,-1.168449 0.622955,-1.752457 0.963837,-1.752457c0.340881,0 1.151978,0.531044 2.409668,1.592964c0.528961,0.438332 0.822983,0.836403 0.858109,1.208176c0.047058,0.305344 -0.047058,0.849815 -0.305542,1.633064z" stroke="null"/>
    <path id="_323020976" class="fil1" d="m180.453873,97.202721c-1.375443,2.362976 -3.173813,5.788254 -5.371887,10.262169c-0.411575,1.168259 -0.822952,2.336678 -1.210754,3.504921c-0.317581,0.809906 -0.74054,1.208168 -1.269547,1.208168c-0.411377,0 -1.022812,-0.199036 -1.83371,-0.584045c-0.893326,-0.41169 -1.340103,-0.823334 -1.340103,-1.248055c0,-0.172752 0.152786,-0.584038 0.446777,-1.208168c1.492661,-3.411827 2.832748,-7.68692 3.996582,-12.78463c1.269394,-5.376923 1.79837,-9.465874 1.622177,-12.293663c-0.047256,-1.141754 -0.282074,-1.71254 -0.693497,-1.71254c-0.293976,0 -0.740723,0.318596 -1.340073,0.969208c-5.783417,6.385689 -10.790787,14.908844 -15.010849,25.595909c-0.528992,1.314499 -1.151962,1.977982 -1.868881,1.977982c-0.505554,0 -1.340103,-0.318619 -2.503784,-0.969032c-0.470215,-0.238945 -0.705368,-0.451401 -0.728668,-0.663666c0,-0.106331 0.129166,-0.464668 0.376068,-1.088783c1.340042,-3.292274 2.656509,-7.460861 3.961243,-12.519188c1.39888,-5.469818 2.198074,-9.744553 2.374481,-12.797867c0.04689,-0.929497 0.023605,-1.407196 -0.070709,-1.407196c-0.023285,0 -0.340714,0.358345 -0.963684,1.061935c-0.611237,0.690338 -1.481125,1.6064 -2.574295,2.721474c-0.211716,0.225693 -0.435013,0.345261 -0.693481,0.345261c-0.317429,0 -0.482101,-0.146049 -0.482101,-0.424721c0,-0.212463 0.117615,-0.43837 0.340912,-0.703789c0.987442,-1.420616 2.292343,-3.199371 3.8909,-5.32357c0.3526,-0.438164 0.705368,-0.663887 1.069534,-0.663887c0.552612,0 1.034561,0.451218 1.445938,1.354218c1.86908,0.623955 2.738953,1.592979 2.621338,2.880791c-0.258591,2.854469 -1.55162,8.005333 -3.890884,15.43988c1.54007,-3.345436 3.773331,-7.076042 6.711945,-11.217957c2.938766,-4.128845 5.125107,-6.571846 6.547272,-7.3284c0.705368,-0.358322 1.210754,-0.544495 1.516434,-0.544495c0.293823,0 0.77594,0.27887 1.44577,0.849663c1.904282,0.75695 2.844833,2.004822 2.821198,3.744026c0,1.805435 -0.387939,4.72612 -1.175568,8.748863c-0.611237,3.318916 -1.187119,5.894348 -1.716156,7.739899c0.670227,-0.969215 1.516479,-2.203873 2.550873,-3.743881c0.176193,-0.252357 0.364487,-0.384979 0.552277,-0.384979c0.340851,0 0.517242,0.25219 0.517242,0.743515c0,0.159088 -0.023438,0.305168 -0.070328,0.46463z" stroke="null"/>
    <path id="_323020904" class="fil1" d="m137.749008,83.555023c-7.052811,41.30162 -16.209534,61.945694 -27.482239,61.919022c-4.067139,0 -8.463409,-2.535706 -13.188858,-7.593658c-0.43486,-0.464645 -0.658173,-0.942535 -0.658173,-1.433853c0,-0.756577 0.305557,-1.12851 0.928711,-1.12851c0.317261,0 0.634674,0.146057 0.928665,0.424927c3.749542,3.611023 7.099548,5.416641 10.061783,5.416641c9.450699,0 17.338058,-15.692245 23.650467,-47.063347c-3.832108,7.43457 -7.170395,12.771385 -10.014862,15.984375c-1.151978,1.314301 -2.174774,1.978157 -3.068115,1.978157c-0.8228,0 -1.845459,-0.517998 -3.067917,-1.553413c-2.174622,-1.22142 -3.220703,-3.21283 -3.126724,-5.987465c0.129303,-3.398758 1.292984,-7.607079 3.479294,-12.638733c2.127563,-4.898682 4.360962,-8.602989 6.67662,-11.08535c1.304718,-1.407356 2.492035,-2.110962 3.550003,-2.110962c0.775742,0 1.633759,0.398254 2.57431,1.168236c0.140869,0.132835 1.057983,1.048866 2.762238,2.761597c0.340851,0.344894 0.517242,0.676918 0.517242,1.022179c0,0.464653 -0.282089,0.690163 -0.834686,0.690163c-0.340897,0 -0.728668,-0.106117 -1.163528,-0.344887c-0.693481,-0.411667 -1.363678,-0.624146 -2.033554,-0.624146c-0.963867,0 -1.83371,0.384995 -2.621536,1.168243c-1.669037,1.659576 -3.432251,4.354568 -5.265808,8.085182c-1.998566,4.102188 -3.220886,7.832794 -3.679184,11.204895c-0.117584,0.902603 -0.176376,1.69928 -0.176376,2.376404c0,1.911545 0.458466,2.88076 1.375244,2.88076c0.622986,0 1.281128,-0.358322 1.963028,-1.061913c2.7388,-2.641998 5.442215,-6.465508 8.134277,-11.47052c2.491867,-4.606728 4.278503,-8.854958 5.336517,-12.718369c0.387772,-1.36747 0.587753,-2.681763 0.587753,-3.92984c0,-0.982483 0.199677,-1.473404 0.611099,-1.473404c0.435028,0 1.293182,0.544289 2.550827,1.632881c0.752289,0.650444 0.987473,1.818863 0.693481,3.504707z" stroke="null"/>
    <path id="_323021408" class="fil1" d="m113.158661,81.80278c0,3.398575 -0.41124,6.637863 -1.210754,9.71804c-0.24675,0.94236 -0.59935,1.407188 -1.034378,1.407188c-0.317261,0 -1.034348,-0.517799 -2.127548,-1.553429c-0.552429,-0.517624 -0.693619,-1.261147 -0.423111,-2.216904c0.646423,-2.363342 0.963837,-4.261482 0.963837,-5.682289c0,-0.491142 -0.082397,-0.743324 -0.27034,-0.743324c-0.270386,0 -0.728836,0.46463 -1.340088,1.407181c-4.784058,7.022881 -8.345657,14.908836 -10.708542,23.64444c-0.76384,2.774834 -1.410416,4.155327 -1.927689,4.155327c-0.211578,0 -1.116776,-0.451385 -2.727051,-1.354012c-0.775757,-0.438164 -1.046265,-1.301056 -0.78746,-2.575432c1.809921,-8.961487 3.761414,-16.541901 5.853622,-22.702087c-1.704254,2.017899 -2.785675,3.398788 -3.244186,4.155365c-0.176193,0.305542 -0.434982,0.46463 -0.752274,0.46463c-0.387939,0 -0.587769,-0.185791 -0.587769,-0.584015c0,-0.225723 0.093948,-0.491135 0.282074,-0.770004c1.116791,-1.540001 2.621338,-3.863419 4.502136,-7.009636c0.575912,-1.141945 1.151978,-1.712746 1.727859,-1.712746c0.411423,0 1.245941,0.37178 2.515518,1.0886c0.705185,0.424934 0.822784,0.982452 0.340851,1.673012c-0.505508,0.756569 -1.457489,3.411819 -2.856369,7.978638c-1.328339,4.434212 -2.256836,7.912643 -2.76239,10.421661c3.126907,-7.859291 6.676758,-14.789459 10.64975,-20.803185c0.752274,-1.141945 1.363693,-1.71273 1.822006,-1.71273c0.41124,0 0.975723,0.305344 1.692673,0.929298c0.96402,0.132629 1.563354,0.305351 1.822006,0.504555c0.387939,0.318604 0.587616,0.94236 0.587616,1.871841l0,0.000015z" stroke="null"/>
    <path id="_323021264" class="fil1" d="m87.945129,85.148384c-2.115982,6.611206 -3.573296,12.16069 -4.372673,16.64785c0.340897,-0.371567 0.799377,-0.929291 1.363533,-1.672615c0.564194,-0.756943 0.905067,-1.194923 1.04628,-1.327721c0.317261,-0.464638 0.669861,-0.703598 1.034363,-0.703598c0.340881,0 0.517105,0.199203 0.517105,0.584213c0,0.23893 -0.094147,0.504387 -0.282089,0.822975c-2.151161,3.597801 -3.585205,7.248756 -4.302315,10.926208c-0.199654,1.035637 -0.51709,1.553444 -0.928673,1.553444c-0.387772,0 -1.11644,-0.411697 -2.162697,-1.234856c-0.622971,-0.47789 -0.975571,-0.8629 -1.06974,-1.168228c-0.117416,-0.292114 -0.117416,-0.8629 0,-1.71254c0.964035,-6.584908 2.16291,-12.054733 3.608849,-16.422554c-1.998222,3.664246 -4.71373,7.71344 -8.157883,12.134392c-3.008972,3.876503 -5.17202,6.332718 -6.512093,7.39463c-0.963844,0.75676 -1.692528,1.12854 -2.198074,1.12854c-0.411209,0 -1.046082,-0.37178 -1.892509,-1.12854c-1.222496,-0.823151 -1.83374,-1.964912 -1.83374,-3.425072c0,-0.27887 0.023628,-0.610886 0.070518,-0.969208c0.411591,-3.836746 1.904427,-8.297607 4.478561,-13.3955c2.574448,-5.097893 5.52462,-9.399292 8.851349,-12.89093c1.081429,-1.141777 2.045128,-1.699501 2.891731,-1.672821c0.822609,0.053154 2.397697,1.274368 4.725281,3.690689c0.199638,0.212456 0.305504,0.424919 0.305504,0.663864c0,0.411659 -0.246735,0.62413 -0.728661,0.62413c-0.176384,0 -0.352776,-0.040123 -0.517265,-0.119751c-1.622154,-0.783249 -2.938622,-0.756584 -3.926094,0.079628c-2.151138,1.77916 -4.537148,4.938805 -7.158676,9.452629c-3.032578,5.177734 -4.854599,9.850883 -5.477539,13.992805c-0.023643,0.185776 -0.035194,0.358505 -0.035194,0.504364c0,0.65062 0.235016,0.98246 0.693504,0.98246c0.775719,0 1.704391,-0.610519 2.785667,-1.832115c2.574448,-2.827614 5.324951,-6.385483 8.263573,-10.6604c3.0093,-4.434212 4.936836,-7.779625 5.795181,-10.036644c0.611214,-1.659386 1.010719,-2.827805 1.198997,-3.491478c0.293816,-1.168449 0.622986,-1.752457 0.963699,-1.752457c0.340881,0 1.151947,0.531044 2.40979,1.592964c0.528976,0.438332 0.8228,0.836403 0.857971,1.208176c0.047226,0.305344 -0.04689,0.849815 -0.305542,1.633064z" stroke="null"/>
    <path id="_323020664" class="fil1" d="m69.832352,60.640854c0.164497,0.1595 0.235016,0.345284 0.235016,0.544327c0,0.517799 -0.36451,0.783424 -1.09317,0.783424c-0.14106,0 -0.3526,-0.026695 -0.634674,-0.079849c-0.293991,-0.052979 -0.517273,-0.079636 -0.681793,-0.079636c-1.06971,0 -2.163048,1.194908 -3.267929,3.584549c-4.478539,9.797729 -7.393532,21.9981 -8.745354,36.588539c0.529015,-1.11525 1.222519,-2.602104 2.104111,-4.473953c0.246735,-0.570946 0.552429,-0.84964 0.92849,-0.84964c0.435036,0 0.646599,0.318604 0.646599,0.969025c0,0.318619 -0.070686,0.677139 -0.235184,1.0886c-1.010765,2.695 -1.939415,6.57148 -2.785675,11.629829c-0.211731,1.115265 -0.65834,1.672791 -1.35199,1.672791c-0.775879,0 -1.963028,-0.677101 -3.538116,-2.018082c-0.76384,-0.650429 -1.198868,-1.168228 -1.316444,-1.55323c-0.129326,-0.371582 -0.129326,-1.115082 0.035339,-2.256828c0.822632,-5.629143 1.892517,-11.97509 3.208961,-19.024452c1.516312,-8.058678 2.60965,-12.824509 3.303131,-14.271637c-2.409981,3.212608 -5.372032,7.938934 -8.886528,14.152275c-3.444191,6.120041 -6.453308,11.948204 -9.027763,17.470993c0.470184,1.606415 0.693481,2.814568 0.693481,3.611038c0,1.008957 -0.752281,2.310013 -2.26841,3.889923c-0.787788,0.836212 -1.304909,1.247894 -1.551651,1.247894c-0.258621,0 -0.928665,-1.035446 -2.033554,-3.106483c-0.482086,-0.889565 -0.728996,-1.593147 -0.728996,-2.110977c0,-0.358315 0.341057,-1.234627 0.999191,-2.641823c-1.469231,-6.173424 -4.137482,-13.687607 -8.016663,-22.555824c-2.480148,7.04953 -4.995628,13.48819 -7.546467,19.289871c1.657509,2.097687 2.48032,3.518143 2.48032,4.234993c0,0.570946 -0.575909,0.942505 -1.716141,1.08857c-2.409618,0.318604 -4.431458,1.71273 -6.065517,4.208519c-0.141041,0.796478 -0.481922,1.208145 -1.034382,1.208145c-0.775879,0 -1.986481,-0.796677 -3.60881,-2.376381c-0.505379,-0.491135 -0.76384,-0.88958 -0.76384,-1.208176c0,-0.278862 0.211559,-0.637184 0.622971,-1.048683c1.539742,-1.500259 3.291389,-2.960785 5.266159,-4.35453c4.26696,-8.018784 7.746132,-16.435791 10.438179,-25.277519c-2.809628,-6.956474 -6.277237,-11.802361 -10.438179,-14.550522c-0.693489,-0.464447 -1.34008,-0.703583 -1.963058,-0.703583c-0.869862,0 -1.78664,0.504379 -2.75066,1.513519c-0.89333,1.088585 -1.79855,2.190414 -2.691879,3.305695c-0.505371,0.650436 -1.022472,0.982452 -1.551464,0.982452c-0.411575,0 -0.61142,-0.238937 -0.61142,-0.703598c0,-0.23893 0.058804,-0.504379 0.199844,-0.82296c3.103279,-7.02327 6.065517,-10.475014 8.886539,-10.342209c3.350189,0.13282 7.699226,4.819214 13.047802,14.085869c1.316467,-3.372108 1.963058,-6.425613 1.963058,-9.14727c0,-1.393768 0.187927,-2.097359 0.552269,-2.097359c0.352768,0 1.15197,0.55735 2.409782,1.67263c0.376228,0.332008 0.540726,1.035423 0.517097,2.097725c-0.04689,1.354012 -1.104881,5.283852 -3.197083,11.788925c4.043678,8.868393 7.099907,16.95356 9.192093,24.268364c8.0989,-15.20076 15.39846,-27.056274 21.863647,-35.592644c0.811089,-2.071251 1.798393,-4.115616 2.962234,-6.146942c0.505379,-0.875938 1.116447,-1.314293 1.833557,-1.314293c1.069901,0 2.98571,1.247894 5.712921,3.730614l0,-0.000015z" stroke="null"/>
   </g>
   <text x="-148.204132" y="-48.197951" class="fil2 fnt0" id="svg_9" transform="matrix(1.67509366988611,0,0,1.8918875308690275,-73.89381824958554,-85.6494257568612) " stroke="null">Marginais</text>
  </g>
 </g>
</svg>