<?xml version="1.0" encoding="UTF-8"?>
<!DOCTYPE svg PUBLIC "-//W3C//DTD SVG 1.1//EN" "http://www.w3.org/Graphics/SVG/1.1/DTD/svg11.dtd">
<!-- Creator: CorelDRAW -->
<svg xmlns="http://www.w3.org/2000/svg" xml:space="preserve" width="297mm" height="210mm" style="shape-rendering:geometricPrecision; text-rendering:geometricPrecision; image-rendering:optimizeQuality; fill-rule:evenodd; clip-rule:evenodd"
viewBox="0 0 297 210"
 xmlns:xlink="http://www.w3.org/1999/xlink">
 <defs>
  <style type="text/css">
   <![CDATA[
    .fil0 {fill:#282929;fill-rule:nonzero}
    .fil1 {fill:#D63438;fill-rule:nonzero}
    .fil2 {fill:#FEFEFE;fill-rule:nonzero}
   ]]>
  </style>
 </defs>
 <g id="Camada_x0020_1">
  <metadata id="CorelCorpID_0Corel-Layer"/>
  <g id="_323014496">
   <g>
    <polygon id="_323002880" class="fil0" points="54.6453,112.201 54.6453,165.33 52.7976,165.33 52.7976,112.201 49.8715,112.201 49.8715,110.353 57.2247,110.353 57.2247,112.201 "/>
    <path id="_323003000" class="fil0" d="M66.7724 165.33l-1.8477 0 0 -54.9774 6.0828 0c0.872,0 1.3089,0.5531 1.3089,1.6563l0 23.4462c0,1.3858 -0.3984,2.181 -1.1934,2.386l0.6161 0.2695c0.3846,0.1802 0.5773,0.8351 0.5773,1.9639l0 25.2555 -1.8479 0 0 -24.8322c0,-1.0264 -0.3723,-1.54 -1.1164,-1.54l-2.5797 0 0 26.3722zm3.6961 -30.1453l0 0 0 -22.252c0,-0.4869 -0.1288,-0.7318 -0.385,-0.7318l-3.3111 0 0 24.9092 2.5797 0c0.7441,0 1.1164,-0.6413 1.1164,-1.9254z"/>
    <path id="_323002736" class="fil0" d="M84.5978 110.353c1.7709,0 2.6563,1.1167 2.6563,3.3504l0 48.2002c0,2.2849 -0.6294,3.4268 -1.8865,3.4268l-3.4649 0c-1.2578,0 -1.8864,-1.1419 -1.8864,-3.4268l0 -48.2002c0,-2.2337 0.8856,-3.3504 2.6565,-3.3504l1.925 0zm-0.4233 53.1297l0 0c0.8207,0 1.2317,-0.8478 1.2317,-2.542l0 -47.2373c0,-1.0016 -0.2571,-1.5021 -0.7699,-1.5021l-2.0022 0c-0.5138,0 -0.7699,0.5005 -0.7699,1.5021l0 47.2373c0,1.6942 0.4099,2.542 1.2319,2.542l1.0784 0z"/>
    <path id="_323002760" class="fil0" d="M102.192 128.102l-1.848 0 0 -14.3983c0,-1.0016 -0.2569,-1.5021 -0.7697,-1.5021l-2.0023 0c-0.5138,0 -0.7701,0.5005 -0.7701,1.5021l0 47.2373c0,1.6942 0.4102,2.542 1.2321,2.542l1.0782 0c0.8211,0 1.2318,-0.8478 1.2318,-2.542l0 -13.4351 1.848 0 0 14.398c0,2.2849 -0.6295,3.4268 -1.8864,3.4268l-3.4651 0c-1.2578,0 -1.8863,-1.1419 -1.8863,-3.4268l0 -48.2002c0,-2.2337 0.8854,-3.3504 2.6565,-3.3504l1.925 0c1.7708,0 2.6563,1.1167 2.6563,3.3504l0 14.3983z"/>
    <path id="_323002856" class="fil0" d="M119.17 145.235l1.6168 20.0958 -1.8477 0 -1.3088 -18.2875 -4.1196 0 -1.5397 18.2875 -2.079 0 5.0815 -54.9774 1.3861 0 2.8104 34.8425 0 0.0391zm-1.6937 -0.0391l0 0 -1.7329 -24.1774 -2.0403 24.1774 3.7732 0z"/>
    <polygon id="_323002496" class="fil0" points="128.487,110.353 130.334,110.353 134.724,150.97 134.724,110.353 136.571,110.353 136.571,165.33 134.724,165.33 130.334,128.794 130.334,165.33 128.487,165.33 "/>
    <path id="_323003024" class="fil0" d="M149.007 110.353c1.7705,0 2.6569,1.1167 2.6569,3.3504l0 48.2002c0,2.2849 -0.6303,3.4268 -1.8869,3.4268l-5.5051 0 0 -54.9774 4.7351 0zm-0.4224 53.1297l0 0c0.8197,0 1.2314,-0.8478 1.2314,-2.542l0 -47.2373c0,-1.0016 -0.2582,-1.5021 -0.77,-1.5021l-2.9256 0 0 51.2814 2.4642 0z"/>
    <path id="_323003072" class="fil0" d="M163.944 110.353c1.7714,0 2.6577,1.1167 2.6577,3.3504l0 48.2002c0,2.2849 -0.6307,3.4268 -1.888,3.4268l-3.4646 0c-1.2572,0 -1.8849,-1.1419 -1.8849,-3.4268l0 -48.2002c0,-2.2337 0.8845,-3.3504 2.6552,-3.3504l1.9246 0zm-0.4224 53.1297l0 0c0.82,0 1.2317,-0.8478 1.2317,-2.542l0 -47.2373c0,-1.0016 -0.2578,-1.5021 -0.7702,-1.5021l-2.0015 0c-0.5136,0 -0.7697,0.5005 -0.7697,1.5021l0 47.2373c0,1.6942 0.41,2.542 1.2317,2.542l1.078 0z"/>
    <polygon id="_323002400" class="fil0" points="195.706,165.33 193.858,165.33 193.858,110.353 195.706,110.353 "/>
    <path id="_323002640" class="fil0" d="M208.141 110.353c1.7708,0 2.6571,1.1167 2.6571,3.3504l0 48.2002c0,2.2849 -0.6302,3.4268 -1.8874,3.4268l-5.5046 0 0 -54.9774 4.7349 0zm-0.4224 53.1297l0 0c0.82,0 1.2317,-0.8478 1.2317,-2.542l0 -47.2373c0,-1.0016 -0.2579,-1.5021 -0.7697,-1.5021l-2.9267 0 0 51.2814 2.4647 0z"/>
    <polygon id="_323003312" class="fil0" points="224.735,110.353 224.735,112.201 220.346,112.201 220.346,137.11 224.735,137.11 224.735,138.958 220.346,138.958 220.346,163.483 224.735,163.483 224.735,165.33 218.498,165.33 218.498,110.353 "/>
    <polygon id="_323003552" class="fil0" points="234.283,165.33 232.435,165.33 232.435,110.353 234.283,110.353 "/>
    <path id="_323003744" class="fil0" d="M251.26 145.235l1.6169 20.0958 -1.8477 0 -1.3093 -18.2875 -4.1189 0 -1.54 18.2875 -2.0784 0 5.0814 -54.9774 1.3857 0 2.8103 34.8425 0 0.0391zm-1.6939 -0.0391l0 0 -1.7317 -24.1774 -2.0418 24.1774 3.7735 0z"/>
   </g>
   <g>
    <polygon id="_323003456" class="fil1" points="189.416,80.5958 189.416,54.7917 204.655,67.6928 "/>
    <polygon id="_323003480" class="fil1" points="113.333,54.7917 113.333,80.5958 98.093,67.6928 "/>
    <path id="_323003816" class="fil1" d="M191.38 91.3461c0,1.2246 -0.9934,2.2174 -2.2181,2.2174l-76.1068 0c-1.2248,0 -2.2175,-0.9928 -2.2175,-2.2174l0 -47.3048c0,-1.225 0.9927,-2.2177 2.2175,-2.2177l76.1068 0c1.2247,0 2.2181,0.9927 2.2181,2.2177l0 47.3048z"/>
    <g>
     <path id="_323003144" class="fil2" d="M141.31 67.7715c0,2.5346 -2.0538,4.589 -4.5896,4.589 -2.5334,0 -4.589,-2.0544 -4.589,-4.589 0,-2.5348 2.0556,-4.5899 4.589,-4.5899 2.5358,0 4.5896,2.0551 4.5896,4.5899z"/>
     <path id="_323003192" class="fil2" d="M155.697 67.7715c0,2.5346 -2.0553,4.589 -4.5889,4.589 -2.5354,0 -4.5894,-2.0544 -4.5894,-4.589 0,-2.5348 2.054,-4.5899 4.5894,-4.5899 2.5336,0 4.5889,2.0551 4.5889,4.5899z"/>
     <path id="_323003120" class="fil2" d="M170.086 67.7715c0,2.5346 -2.056,4.589 -4.5899,4.589 -2.5352,0 -4.5893,-2.0544 -4.5893,-4.589 0,-2.5348 2.0541,-4.5899 4.5893,-4.5899 2.5339,0 4.5899,2.0551 4.5899,4.5899z"/>
    </g>
   </g>
  </g>
 </g>
</svg>
